STARTFONT 2.3
FONT -FontForge-Tangerine-Book-R-Normal--32-320-72-72-P-119-ISO10646-1
SIZE 32 72 72  4
FONTBOUNDINGBOX 54 34 -11 -9
COMMENT "Generated by fontforge, http://fontforge.sourceforge.net"
COMMENT "Copyright (c) 2010 by Toshi Omagari. All rights reserved."
STARTPROPERTIES 40
FOUNDRY "FontForge"
FAMILY_NAME "Tangerine"
WEIGHT_NAME "Book"
SLANT "R"
SETWIDTH_NAME "Normal"
ADD_STYLE_NAME ""
PIXEL_SIZE 32
POINT_SIZE 320
RESOLUTION_X 72
RESOLUTION_Y 72
SPACING "P"
AVERAGE_WIDTH 119
CHARSET_REGISTRY "ISO10646"
CHARSET_ENCODING "1"
FONTNAME_REGISTRY ""
CHARSET_COLLECTIONS "ISO10646-1"
BITS_PER_PIXEL 4
FONT_NAME "Tangerine-Regular"
FACE_NAME "Tangerine Regular"
COPYRIGHT "Copyright (c) 2010 by Toshi Omagari. All rights reserved."
FONT_VERSION "1.3"
FONT_ASCENT 24
FONT_DESCENT 8
UNDERLINE_POSITION -3
UNDERLINE_THICKNESS 2
X_HEIGHT 7
CAP_HEIGHT 20
RAW_ASCENT 750
RAW_DESCENT 250
NORM_SPACE 5
RELATIVE_WEIGHT 40
RELATIVE_SETWIDTH 50
SUPERSCRIPT_X 0
SUPERSCRIPT_Y 15
SUPERSCRIPT_SIZE 20
SUBSCRIPT_X 0
SUBSCRIPT_Y 4
SUBSCRIPT_SIZE 20
AVG_LOWERCASE_WIDTH 78
AVG_UPPERCASE_WIDTH 225
ENDPROPERTIES
CHARS 233
STARTCHAR space
ENCODING 32
SWIDTH 150 0
DWIDTH 5 0
BBX 1 1 0 0
BITMAP
00
ENDCHAR
STARTCHAR exclam
ENCODING 33
SWIDTH 189 0
DWIDTH 6 0
BBX 10 17 1 0
BITMAP
00000003C1
0000001E80
0000006F10
000000B900
000001F200
000006A000
00000B3000
00002B0000
0000840000
0000B00000
0004600000
0009000000
0027000000
0010000000
0000000000
0A80000000
2D20000000
ENDCHAR
STARTCHAR quotedbl
ENCODING 34
SWIDTH 214 0
DWIDTH 7 0
BBX 8 5 1 8
BITMAP
003D33D3
00C60C70
06806900
19019000
20020000
ENDCHAR
STARTCHAR numbersign
ENCODING 35
SWIDTH 289 0
DWIDTH 9 0
BBX 10 11 0 0
BITMAP
0000010001
0000290191
0001B10920
02DEFEEFF8
0009108200
0009009000
0055155000
4BEEEDA900
0180150000
0530600000
0600600000
ENDCHAR
STARTCHAR dollar
ENCODING 36
SWIDTH 269 0
DWIDTH 9 0
BBX 9 16 0 -3
BITMAP
0000000200
0000000800
0000003600
000089CA10
0007616830
000B451500
0009960000
0001D80000
00005C5000
030335B000
380504B000
98141B5000
3BBCB40000
0080000000
0440000000
0100000000
ENDCHAR
STARTCHAR percent
ENCODING 37
SWIDTH 388 0
DWIDTH 12 0
BBX 12 15 0 -3
BITMAP
000000000056
0000000002A0
004CE5000A10
04606B008300
09003A047000
490055190000
5C0280915CE6
1DD90744605B
0000380A003A
0001903A0054
0008204C0280
0046001CE900
019000000000
092000000000
020000000000
ENDCHAR
STARTCHAR ampersand
ENCODING 38
SWIDTH 507 0
DWIDTH 16 0
BBX 16 15 0 0
BITMAP
0000006DD2000000
00000461B6000000
00000A0076000000
00002A0091000000
00003A0160000000
00002B1500000000
00000E3000000000
00045C4000004CE6
0084079000058128
085002E100250000
2E0000B800600000
5E00003E45000000
4F400007E7000000
0CD500178FA40044
018DEB8103AEFC60
ENDCHAR
STARTCHAR quotesingle
ENCODING 39
SWIDTH 120 0
DWIDTH 4 0
BBX 5 5 1 8
BITMAP
003E30
00C600
068000
190000
200000
ENDCHAR
STARTCHAR parenleft
ENCODING 40
SWIDTH 250 0
DWIDTH 8 0
BBX 8 25 3 -4
BITMAP
00000013
000001A1
00000B20
00009600
0004B000
000D3000
005B0000
00C50000
04E00000
09A00000
0D500000
3F100000
7D000000
AA000000
C7000000
D5000000
E3000000
E2000000
E1000000
D1000000
B1000000
92000000
65000000
28000000
02000000
ENDCHAR
STARTCHAR parenright
ENCODING 41
SWIDTH 276 0
DWIDTH 9 0
BBX 8 25 1 -4
BITMAP
00000120
00000190
000000B0
000000A2
00000093
00000085
00000096
00000096
000000B6
000000D5
000001F3
000003F1
000006D0
000009A0
00000E50
00003F10
00008B00
0000D400
0004B000
000C4000
005A0000
01C10000
0A300000
74000000
20000000
ENDCHAR
STARTCHAR asterisk
ENCODING 42
SWIDTH 188 0
DWIDTH 6 0
BBX 5 5 1 8
BITMAP
001C00
344800
15C220
192A10
440440
ENDCHAR
STARTCHAR plus
ENCODING 43
SWIDTH 301 0
DWIDTH 10 0
BBX 8 9 1 0
BITMAP
00000200
00004800
0000A200
0001C000
3EFFFFF8
01093000
000C0000
00480000
00100000
ENDCHAR
STARTCHAR comma
ENCODING 44
SWIDTH 112 0
DWIDTH 4 0
BBX 3 4 0 -2
BITMAP
05A0
0690
0820
5200
ENDCHAR
STARTCHAR hyphen
ENCODING 45
SWIDTH 245 0
DWIDTH 8 0
BBX 4 1 1 4
BITMAP
5642
ENDCHAR
STARTCHAR period
ENCODING 46
SWIDTH 112 0
DWIDTH 4 0
BBX 2 2 1 0
BITMAP
8A
D4
ENDCHAR
STARTCHAR slash
ENCODING 47
SWIDTH 210 0
DWIDTH 7 0
BBX 13 23 -1 -2
BITMAP
00000000000020
000000000000A0
00000000000730
00000000002900
00000000009100
00000000047000
000000000A0000
00000000740000
00000001900000
00000008200000
00000038000000
000000A1000000
00000560000000
00000A00000000
00007400000000
00019000000000
00092000000000
00380000000000
00A10000000000
05600000000000
0B000000000000
75000000000000
40000000000000
ENDCHAR
STARTCHAR zero
ENCODING 48
SWIDTH 349 0
DWIDTH 11 0
BBX 10 10 1 0
BITMAP
00006CED60
00183017F4
00810000B9
055000007A
0B00000068
1D00000084
3E000001A0
2F30000830
0CD3028400
02BEE92000
ENDCHAR
STARTCHAR one
ENCODING 49
SWIDTH 189 0
DWIDTH 6 0
BBX 7 10 1 0
BITMAP
00248C30
0ACAF800
0008D100
001E5000
007C0000
00E50000
06D00000
0C800000
3F300000
9A000000
ENDCHAR
STARTCHAR two
ENCODING 50
SWIDTH 277 0
DWIDTH 9 0
BBX 9 10 0 0
BITMAP
00007DEB10
0008303E80
0044000A90
0020000B60
0000003C00
000002A200
0000581000
0028400000
06D6322710
857BDFD400
ENDCHAR
STARTCHAR three
ENCODING 51
SWIDTH 253 0
DWIDTH 8 0
BBX 11 15 -2 -5
BITMAP
0000058AD600
000043005F20
000000001F30
000000007D00
00000029D300
00005AE71000
0002314A3000
00000006D100
00000002F400
00000000F400
00000002F100
000000079000
4000004B1000
961039A10000
3DFD93000000
ENDCHAR
STARTCHAR four
ENCODING 52
SWIDTH 363 0
DWIDTH 12 0
BBX 14 16 1 0
BITMAP
00000000000056
00000000001A90
0000000003DC00
0000000066E300
00000017289000
000001811E1000
00002700880000
00037001E20000
00280006A00000
0280000C400100
1C95314D027200
5469BEFFEA3000
000001F3000000
000007D0000000
00000D80000000
00003D20000000
ENDCHAR
STARTCHAR five
ENCODING 53
SWIDTH 250 0
DWIDTH 8 0
BBX 13 16 -3 -5
BITMAP
00000000000240
0000001DFFFF30
00000067543100
00000080000000
00000270000000
00000780000000
000007FA100000
0000005EC00000
00000004F50000
00000000C90000
00000000990000
00000000A60000
00000001D10000
11000009400000
2B3014B4000000
07EEC710000000
ENDCHAR
STARTCHAR six
ENCODING 54
SWIDTH 296 0
DWIDTH 9 0
BBX 13 16 1 0
BITMAP
000000017CED40
000000494115B0
00000650000020
00006400000000
00048000000000
001C1000000000
00861440000000
01E7CCF9000000
07D5008F200000
0D80001F400000
2F10000F300000
5D00002E000000
6D000067000000
5E1000A0000000
2F912810000000
07ED8100000000
ENDCHAR
STARTCHAR seven
ENCODING 55
SWIDTH 326 0
DWIDTH 10 0
BBX 13 15 -1 -5
BITMAP
00007DFFECA8A0
0002B300013D40
00071000006900
0005000002C100
000000001C3000
00000000A70000
00000007A00000
0000005C100000
000004D2000000
00003E30000000
0002E500000000
001C8000000000
00AB0000000000
06E20000000000
2C400000000000
ENDCHAR
STARTCHAR eight
ENCODING 56
SWIDTH 305 0
DWIDTH 10 0
BBX 11 16 1 0
BITMAP
000000132000
00000799E800
000093003F30
0002E0000C40
0003F1000D10
0001F8006700
00007F576000
00003EF40000
002951CD1000
05A1002F7000
2D10000BB000
8B000008B000
AA0000088000
9D00000B1000
4F9101830000
05CEC8100000
ENDCHAR
STARTCHAR nine
ENCODING 57
SWIDTH 304 0
DWIDTH 10 0
BBX 12 15 -2 -5
BITMAP
000000258C60
0000041004F3
0000450000E7
0000C00000D7
0004C00000E6
0007B00005F4
0008D0001DE0
0005F712ACB0
00008EEA2F40
000000006C00
00000000D300
000000078000
0000005A0000
461139700000
0AFEA3000000
ENDCHAR
STARTCHAR colon
ENCODING 58
SWIDTH 156 0
DWIDTH 5 0
BBX 5 8 0 0
BITMAP
001B60
005C10
000000
000000
000000
000000
1B6000
4C1000
ENDCHAR
STARTCHAR semicolon
ENCODING 59
SWIDTH 156 0
DWIDTH 5 0
BBX 6 11 -1 -3
BITMAP
0001B5
0004C1
000000
000000
000000
000100
009800
009700
00A200
036000
140000
ENDCHAR
STARTCHAR less
ENCODING 60
SWIDTH 301 0
DWIDTH 10 0
BBX 9 7 1 1
BITMAP
0000003730
00016B8200
028B500000
2FA0000000
04CD500000
0006EB3000
00001AB000
ENDCHAR
STARTCHAR equal
ENCODING 61
SWIDTH 301 0
DWIDTH 10 0
BBX 9 5 1 2
BITMAP
08FFFFFE10
0CA7421000
0000000000
0000000000
7FFFFFF300
ENDCHAR
STARTCHAR greater
ENCODING 62
SWIDTH 301 0
DWIDTH 10 0
BBX 8 6 1 2
BITMAP
03610000
018D7100
0002BE82
000005C5
00001200
22100000
ENDCHAR
STARTCHAR question
ENCODING 63
SWIDTH 285 0
DWIDTH 9 0
BBX 12 17 1 0
BITMAP
000000035200
000003BCEF70
0000381009F2
0000800001F4
0000000000E3
0000000002D0
000000000B40
00000002A400
000001871000
000067100000
000940000000
004C00000000
004E50000000
000000000000
000000000000
0A8000000000
2D2000000000
ENDCHAR
STARTCHAR at
ENCODING 64
SWIDTH 492 0
DWIDTH 16 0
BBX 14 16 1 -4
BITMAP
000005ADFD9200
0002B83114BE30
002A20000008D0
00A100010000C4
056000112B5067
0B0005007C0046
1B008202E50053
4900E008E10040
5801F376C00010
6900BC23D02100
4C000000310000
1F300000000000
09B00000000420
01DB2000005400
001AEA87993000
00002565200000
ENDCHAR
STARTCHAR A
ENCODING 65
SWIDTH 996 0
DWIDTH 32 0
BBX 32 21 1 0
BITMAP
0000000000000000028CEFEDB8520000
0000000000000000683000247BFFD940
00000000000000053000000000149FD1
0000000000000025000000000001CD30
000000000000005000000000002D7700
00000000000000500000000003D39100
0000000000000140000000003C237000
000000000000000000000003C2091000
00000000000000000000003C101A0000
0000000000000000000002B100660000
000000000000000000001B1000B20000
00000000000000000001A20001D00000
0000000000000008FFFFFEEEDDB00000
00100000000000000066000005A00000
06200000000000000760000008800000
1800000000000000840000000A800000
4800000000000029300000000B800000
5C00000000000691000000000C900010
2F9000000005B500000000000BC00250
09FD75446AC700000000000007FA8800
007CEFEC940000000000000001AE8000
ENDCHAR
STARTCHAR B
ENCODING 66
SWIDTH 638 0
DWIDTH 20 0
BBX 20 22 1 0
BITMAP
00000000000000264000
00000000038ABEFC8200
0000000274005B6BFF60
000000340002D1003EF4
00000240000B600003FB
00000600004D000000BD
0000010000B60000008C
0000000001F1000000A7
0000000006C0000003C0
000000000B7002325810
000000001F301AFE5000
000000005D00002BF700
00000000A7000000AF30
00000001E20000001EA0
000000069000000009E0
0000000C1000000006F1
000000750000000005F0
AA1017600000000007C0
4DFA7200000000000C60
01AE7100000000006B00
0003AE82000000189100
0000026AB98777730000
ENDCHAR
STARTCHAR C
ENCODING 67
SWIDTH 557 0
DWIDTH 18 0
BBX 19 21 2 0
BITMAP
000000003789ABDC9200
0000003740000005DF10
00000840000000001D00
00019200000000000700
000A3000000000001100
00780000000000000000
02E10000000000000000
09900000000000000000
1F500000000000000000
4F100000000000000000
8E000000000000000000
AD000000000000000000
BD000000000000000000
BE000000000000000000
AF200000000000000000
6F600000000000150000
1EC00000000000720000
08F50000000001A00000
00BE400000000B600000
0008E7100001AE100000
000028BA989A62000000
ENDCHAR
STARTCHAR D
ENCODING 68
SWIDTH 799 0
DWIDTH 26 0
BBX 25 22 1 0
BITMAP
00000000000000000001410000
000000017BDEEC940185000000
00000069300026CFDC20000000
0000064000000005FFA1000000
000035000000001D89FC100000
000060000000008C006FD10000
00005000000001E40006FB0000
00002000000007D000008F6000
0000000000000D7000000CE100
0000000000003F10000003F700
0000000000008B00000000BD00
000000000000D6000000006F20
000000000004E1000000002F50
00000000000990000000000E60
00000000001E30000000000D50
00000000007B00000000000D30
0000000001D200000000000E00
00000000078000000000004900
005776303A0000000000009100
39779BEEE50000000000064000
D00000588DEA63000003730000
BC9866200037ADEECB95000000
ENDCHAR
STARTCHAR E
ENCODING 69
SWIDTH 494 0
DWIDTH 16 0
BBX 17 21 1 0
BITMAP
0000000005679CA500
000000029200006F50
0000001C1000000840
0000007A0000000600
000000AB0000000000
0000007F4000000000
0000001CF820000000
00000003DFA0000000
000004531000000000
000160000000000000
001800000000000000
00B200000000000000
05C000000000000000
0A8000000000000000
0E7000000000000000
1F7000000000033000
0FA000000000080000
0CE000000000290000
05F800000001C40000
008F7000004C900000
0004ACA88862000000
ENDCHAR
STARTCHAR F
ENCODING 70
SWIDTH 626 0
DWIDTH 20 0
BBX 26 21 1 0
BITMAP
0000000000039CEFECA7300000
00000000018620012357DEB741
0000000017000000001A712451
000000006000000000B6000000
000000033000000006C0000000
00000001000000000D60000000
00000000000000003F10000000
00000000000000008B00000000
0000000000000000C600000000
0000000000000002F200000000
0000000000037ACEFEDC300000
00000000039964299000000000
000000000000000E3000000000
004000000000005B0000000000
07200000000000C30000000000
2A000000000005900000000000
5900000000001B100000000000
5D000000000093000000000000
2F700000001930000000000000
08FA5212488100000000000000
006CEFEB720000000000000000
ENDCHAR
STARTCHAR G
ENCODING 71
SWIDTH 571 0
DWIDTH 18 0
BBX 25 27 -2 -6
BITMAP
0000000000000000049DEEC500
0000000000000003A73103AF20
00000000000000660000000E30
00000000000008200000000B00
00000000000081000000003500
00000000000730000000004000
00000000003800000000000000
0000000000B200000000000000
0000000004B000000000000000
000000000B7000000000000000
000000001F3000000000000000
000000005F1000000000000000
000000007F0000000000000000
000000008F000000008B000000
000000008F10000002F7000000
000000006F4000000AF2000000
000000001EC000008CC0000000
0002000003DC76772D60000000
00840000000243003E10000000
0770000000000000A700000000
0E30000000000002C000000000
2F3000000000000A4000000000
2F400000000000570000000000
0E900000000003900000000000
08E30000000057000000000000
00AE4000003740000000000000
0005BCA8874000000000000000
ENDCHAR
STARTCHAR H
ENCODING 72
SWIDTH 865 0
DWIDTH 28 0
BBX 36 23 1 0
BITMAP
000000000000000000000000000000000020
00000000000000000000000000000004BFF9
000000000028CDFEC940000000000088313B
00000000068300024AD30000000008200005
000000005400000049100000000081000000
0000000060000001C0000000000720000000
000000015000000970000000003700000000
000000014000001E1000000000B000000000
000000002000007C00000000066000000000
00000000000000C8000000001C0000000000
00000000000001F300000000780000000000
00000000000006E000000000D20000000000
0000000000000B9000000004C00000000000
00000048BDEEFFB75420000A700000000000
00007C8420003E468ADEB86F200000000000
002B500000008900000159DFC40000000000
02B100000001D20000000089200000000000
0B20000000078000000000D5000000000000
3A000000001C1000000002F2000000000000
5900000000A30000000006E0001000000000
4D00000019300000000008E0061000000000
1EA2002692000000000008F9A30000000000
03BEED9400000000000002DC300000000000
ENDCHAR
STARTCHAR I
ENCODING 73
SWIDTH 554 0
DWIDTH 18 0
BBX 23 21 1 0
BITMAP
00000000000000000038CD60
00000000000000004CFCA400
000000000000001AD7151000
00000000000001C800640000
0000000000001B4001C00000
000000000000940007800000
00000000000370000D300000
00000000000900002E000000
00000000002600007A000000
0000000000520000B5000000
0000000000600001E1000000
000000000060000590000000
000000000051000B30000000
000000000015002A00000000
001400000004409420000000
038000000000189300000000
1D10000000001A0000000000
5E0000000001910000000000
5F4000000038100000000000
0CE620025960000000000000
017CEEDA6100000000000000
ENDCHAR
STARTCHAR J
ENCODING 74
SWIDTH 634 0
DWIDTH 20 0
BBX 27 27 0 -6
BITMAP
000000000000000000000059CD20
000000000000000000006EFC9200
0000000000000000002DB5150000
000000000000000004D500910000
00000000000000003C2005800000
0000000000000001B1000C200000
000000000000000830002D000000
0000000000000018000079000000
00000000000000620000B5000000
00000000000000700001F1000000
00000000000000600005B0000000
0000000000000070000960000000
0000000000000060000D10000000
0000000000000042005A00000000
000000000000000520A520000000
000000454000000025C300000000
0000352000000000095000000000
00062000000000001C0000000000
0071000000000000940000000000
0720000000000003800000000000
380000000000001A100000000000
9400000000000082000000000000
D200000000000730000000000000
F500000000008300000000000000
CB00000000482000000000000000
4FA4101379500000000000000000
04BEFEC840000000000000000000
ENDCHAR
STARTCHAR K
ENCODING 75
SWIDTH 936 0
DWIDTH 30 0
BBX 31 21 1 0
BITMAP
0000000000027BDFEDA510000018DE70
00000000018A5212359F600006B648D0
00000000193000000193000195000090
00000000710000000A40002910000010
00000003400000003C00028000000000
00000006000000009800280000000000
0000000600000000E401800000000000
0000000600000003F108100000000000
0000000600000006D072000000000000
0000000600000009A3C0000000000000
000000010000000C72F2000000000000
000000000000001F30C6000000000000
000000000000004E008B000000000000
0053000000000088004F100000000000
05500000000000D2000E700000000000
0C000000000005800009D00000000000
4B00000000000B100002F50000000000
6D000000000082000000AD1000000000
4F4000000018300000001EB100002000
0BE7100037710000000004EC52291000
018DFDCA720000000000002AEEA20000
ENDCHAR
STARTCHAR L
ENCODING 76
SWIDTH 657 0
DWIDTH 21 0
BBX 23 21 1 0
BITMAP
000000000000000004BEE800
000000000000000164117F20
000000000000000500000C20
000000000000006000000900
000000000000035000000400
0000000000000A0000000000
000000000000470000000000
000000000000B20000000000
000000000002D00000000000
000000000007800000000000
00000000000C500000000000
00000000001F100000000000
00000000006B000000000000
0000000000A7000000000000
0000000001E1000000000000
0000000006A0000000000000
000210000D30000000000000
19BCED947900000000030000
B10004AFF400000000520000
E40000444BD8421027600000
5DC986100049DEEDA3000000
ENDCHAR
STARTCHAR M
ENCODING 77
SWIDTH 1219 0
DWIDTH 39 0
BBX 41 21 1 0
BITMAP
0000000000000005ACEEDCA7410000000000002930
00000000000002951000247BFFC73000000006E500
000000000000170000000000159FB0000001AE7000
000000000000600000000000006E1000001B9A0000
00000000000150000000000002E8000002C4C20000
0000000000051000000000000AD100002C38700000
00000000000300000000000068900001C31D100000
0000000000000000000000029930001C3088000000
00000000000000000000000B2D0000B401E2000000
0000000000000000000000935900096005B0000000
000300000000000000000660A40068000A70000000
008100000000000000003901E003B0000E20000000
09300000000000000002A005B01C10003E00000000
1E00000000000000002B100970A400006C00000000
4D0000000000000001B2000D459000008A00000000
5E000000000000003B10001F2C100000A900000000
4F30000000000005B100004D94000000B900000000
1EA00000000001980000007DA0000000BB00010000
08F8000000016C400000009F200000009E10250000
00AFC64346AD6000000000B9000000005FB7800000
0006BEFEC9500000000000B10000000009E8000000
ENDCHAR
STARTCHAR N
ENCODING 78
SWIDTH 990 0
DWIDTH 32 0
BBX 40 21 1 0
BITMAP
000000000005BEED820100000000000000019ED2
0000000000973237CF9A100000000000002DA7CA
000000000720000005EF20000000000001D50009
0000000002000000001FD200000000000B400001
0000000000000000002CEC100000000067000000
000000000000000000563EA000000001B0000000
0000000000000000008305F60000000730000000
000000000000000000B0009E1000000900000000
000000000000000001A0001E9000006300000000
000000000000000005500006F200009000000000
000000000000000009100000D900026000000000
0030000000000000290000006F20071000000000
0460000000000000820000001E80080000000000
0A000000000000018000000008E0170000000000
3A000000000000092000000002F4440000000000
5A000000000000460000000000CA700000000000
5D000000000003A000000000007E800000000000
2F60000000004B1000000000002FA00000000000
09F700000019B10000000000000C800000000000
00BFE9768BE70000000000000008700000000000
0005BDFEB7100000000000000003600000000000
ENDCHAR
STARTCHAR O
ENCODING 79
SWIDTH 606 0
DWIDTH 19 0
BBX 19 21 2 0
BITMAP
0000000049CEFD920000
00000029731026DE5000
000006600000000AF400
0000630000000000CD00
00063000000000004F40
00360000000000000D80
00B00000000000000AB0
057000000000000008C0
0C2000000000000007C0
2D0000000000000008B0
6B000000000000000980
9A000000000000000B40
A9000000000000001D00
BA000000000000005700
AC00000000000000B100
8F100000000000055000
4F700000000000280000
0CE20000000002800000
03ED3000000047000000
004EF941025940000000
00018CEFDA5000000000
ENDCHAR
STARTCHAR P
ENCODING 80
SWIDTH 783 0
DWIDTH 25 0
BBX 27 23 1 0
BITMAP
0000000000000000000000100000
0000000000000000000016400000
00000000000000049BCEFC820000
0000000000000495201C69FF7000
00000000000055000098002BF700
000000000004300002E10000BF30
0000000000240000089000002F90
00000000006000000E3000000BD0
00000000023000004E00000008E0
00000000050000009900000007D0
0000000000000000D500000009A0
0000000000000012F10000000D40
0000000000000056A00000006B00
000000000000005B50000004C100
001100000000002D830002881000
0250000000000075168875100000
07000000000000B0000000000000
3600000000000640000000000000
6600000000001800000000000000
4A00000000007000000000000000
1E50000000161000000000000000
04E8200026600000000000000000
003AEEDB71000000000000000000
ENDCHAR
STARTCHAR Q
ENCODING 81
SWIDTH 563 0
DWIDTH 18 0
BBX 23 26 2 -5
BITMAP
000000028DEED92000000000
0000007FC978CFF600000000
00000BB2000005EF40000000
0000A8000000005FC0000000
000690000000000BF3000000
001D100000000005F6000000
0077000000000002F8000000
00D1000000000000F8000000
03C0000000000000F6000000
0790000000000000F4000000
0880000000000002E0000000
0A7000000000000680000000
098000000000000A10000000
07B000000000003700000000
02F300000000008000000000
00AD30000000051000000000
0009EC810000310000000000
000000000002000000000000
000000000100000000000000
473012220000000000000000
79DFE6100000000000000000
00039EE71000000000000000
0000017DE710000000000000
000000006CE9200000000610
00000000004BFB7310159200
00000000000027BEFEC61000
ENDCHAR
STARTCHAR R
ENCODING 82
SWIDTH 854 0
DWIDTH 27 0
BBX 27 23 1 0
BITMAP
0000000000000000000001000000
0000000000000000000363000000
00000000000000279ADFFC500000
000000000000276204D47DF80000
00000000000640000D5000AF5000
00000000006100007C00000DC000
0000000006100000E6000007F000
0000000002000005F1000004F000
000000000000000AB0000004D000
000000000000001E600000077000
000000000000005F1000000A0000
000000000000009C000001610000
00000000000000D7056433000000
00000000000003F21F6000000000
00000000000008A00C9000000000
0061000000000E4008C000000000
0610000000006B0005F100000000
170000000000D20001F600000000
550000000007700000AC00000000
6700000000390000004F40000000
3C00000004800000000BD1000030
0BB41015960000000002DD522710
019EFDB61000000000002AEE9100
ENDCHAR
STARTCHAR S
ENCODING 83
SWIDTH 480 0
DWIDTH 15 0
BBX 16 21 1 0
BITMAP
00000000007DFD70
000000000BA66BF6
000000007600008B
00000000D0000039
00000002D0000053
00000001F1000010
00000000C8000000
000000005E200000
000000000CB00000
0000000002E60000
00000000007E2000
00000000000CA000
000000000004F200
003000000000C800
0640000000008A00
1D00000000007A00
5C00000000007700
5F1000000000B200
1F90000000066000
05FB300002750000
0029DDBB97100000
ENDCHAR
STARTCHAR T
ENCODING 84
SWIDTH 577 0
DWIDTH 18 0
BBX 25 21 1 0
BITMAP
00000000049CEFEEDB97410000
00000002B8410112469CFFC840
0000003A1000000000006B9CA0
0000019000000000000A500000
000006200000000000A5000000
00000600000000000690000000
00000600000000001E20000000
00000500000000008A00000000
0000020000000000E400000000
0000000000000005E000000000
000000000000000A9000000000
000000000000001F4000000000
000000000000006D0000000000
00000000000000C60000000000
02500000000003E00000000000
0B00000000000B500000000000
4C00000000005A000000000000
5E0000000002B1000000000000
3F700000003A10000000000000
0AFA4112597000000000000000
006CFEDB610000000000000000
ENDCHAR
STARTCHAR U
ENCODING 85
SWIDTH 752 0
DWIDTH 24 0
BBX 25 21 2 0
BITMAP
000016BDFEC9500000000008C0
0004A521236AE4000000003F30
0056000000074000000000A900
0350000000740000000002E200
0700000005600000000008A000
340000002A00000000001E3000
60000000B200000000007C0000
60000006800000000001E60000
6000001D100000000007F10000
6000006900000000001EA00000
400000C400000000007E500000
000003E000000000029F100000
000007B000000000088B000000
00000B800000000044C7000000
00000D600000000171F3000000
00000F500000000614F0000000
00001F500000004306D0000000
00000F600000044007C0002000
00000DA00000440008D0043000
000008F81148300006F9960000
0000009EEC60000001CE500000
ENDCHAR
STARTCHAR V
ENCODING 86
SWIDTH 661 0
DWIDTH 21 0
BBX 22 21 2 0
BITMAP
00004BEEC600000005DD60
00088313AF9000003517F5
0064000008F4000010009C
0170000000DB000000004E
06000000005F100000002F
06000000001F400000003D
42000000000C600000005A
50000000000980000000A6
20000000000880000001D1
0000000000079000000860
0000000000078000003B00
000000000007700001B200
00000000000850000B4000
00000000000A4000A60000
00000000000C100A700000
00000000000D01C7000000
00000000003A2D60000000
00000000007AE600000000
0000000000CF5000000000
0000000002F40000000000
0000000006400000000000
ENDCHAR
STARTCHAR W
ENCODING 87
SWIDTH 822 0
DWIDTH 26 0
BBX 28 21 2 0
BITMAP
00018DEE91000000000000000BD2
004A5349FD0000000003000065D9
027000006F70000000A50000307C
070000000AC0000009400000005C
3300000004F000006A000000006A
6000000000E20003E50000000077
6000000000C2001BD300000000B3
4000000000B20094F200000001C0
0000000000A10481F20000000850
0000000000A00A11F30000002B00
0000000000A06500F3000000A200
000000000091A000E50000076000
0000000001782000D60000490000
0000000004590000C70003A00000
0000000006920000B8002B100000
00000000089000009901B2000000
000000001D2000008A0A30000000
000000005A0000008A8500000000
00000000A30000007DA000000000
00000001B00000008E1000000000
0000000460000000840000000000
ENDCHAR
STARTCHAR X
ENCODING 88
SWIDTH 813 0
DWIDTH 26 0
BBX 27 21 1 0
BITMAP
00000000000AD2000000017CEB00
00000000008FF80000005DC9DF10
000000000471CC000008B3001E00
0000000008006F00009900000A00
0000000041002F20069000001700
0000000000000E403A0000000000
0000000000000C60B10000000000
0000000000000A96500000000000
00000000000007CA000000000000
00000000000005F4000000000000
00000000000002F1000000000000
00000000000006E4000000000000
0000000000001698000000000000
000000000000705D000000000000
000000000004401F400000000000
006000000017000AA00000000000
0720000001800004F30000000000
0D00000019100000BC0000002000
4F200004A10000002EA000007000
5FD767C91000000003EC41292000
07DFD930000000000029DEB30000
ENDCHAR
STARTCHAR Y
ENCODING 89
SWIDTH 662 0
DWIDTH 21 0
BBX 28 25 0 -4
BITMAP
000000000002AEA000000000005B
00000000004717F00000000001E6
00000000026004F00000000007D0
00000000000006D0000000000D60
0000000000000A90000000007E00
0000000000000E5000000001E700
0000000000003F1000000008E000
0000000000007B000000002E6000
000000000000C600000000AD0000
000000000001F200000005F50000
000000000005C00000001CC00000
000000000009900000008C400000
00000030000C600000077A000000
00027740000F40000055B1000000
00660000001F4000065660000000
06600000000DB214931A00000000
1C0000000004DEC6008200000000
7900000000000000055000000000
A700000000000000270000000000
B800000000000001800000000000
AB00000000000017100000000000
7F20000000000271000000000000
1EC1000000006700000000000000
04ED621124893000000000000000
0029DFFDB7200000000000000000
ENDCHAR
STARTCHAR Z
ENCODING 90
SWIDTH 625 0
DWIDTH 20 0
BBX 22 21 1 0
BITMAP
0000000003ADFED9500000
000000004B410247CE8236
00000000A0000000039ED2
0000000530000000003B10
000000060000000004A100
00000002000000004A1000
0000000000000005A00000
0000000000000069000000
0000000000000790000000
0000000000008800000000
0000000000098000000000
0000000000A70000000000
000000000A700000000000
00000001B6000000000000
0000001C60000000000000
000002C500000000001000
00002D5000000000007000
0003D40000000000072000
003D400000000000560000
04EDDC974210025B700000
3B20047ACEFFEC93000000
ENDCHAR
STARTCHAR bracketleft
ENCODING 91
SWIDTH 318 0
DWIDTH 10 0
BBX 12 23 2 -3
BITMAP
000001F97784
000004F10000
000008C00000
00000B900000
00000E500000
00003F100000
00007C000000
0000A8000000
0000E5000000
0002F1000000
0006C0000000
000A80000000
000D50000000
002F10000000
006D00000000
00A900000000
00E600000000
02F300000000
06E000000000
0AC000000000
0E9000000000
3F6000000000
6FA885000000
ENDCHAR
STARTCHAR backslash
ENCODING 92
SWIDTH 212 0
DWIDTH 7 0
BBX 5 23 1 -2
BITMAP
200000
A00000
A00000
900000
730000
450000
180000
090000
090000
072000
055000
028000
00A000
00A000
008200
005500
002800
000A00
000A00
000820
000550
000280
000020
ENDCHAR
STARTCHAR bracketright
ENCODING 93
SWIDTH 339 0
DWIDTH 11 0
BBX 12 23 0 -3
BITMAP
0000004889F8
0000000003F5
0000000006F1
0000000009C0
000000000C80
000000000F50
000000003F10
000000007C00
00000000A800
00000000E500
00000002F100
00000006C000
000000099000
0000000D5000
0000002F1000
0000006D0000
000000990000
000000D60000
000002F20000
000006E00000
00000AA00000
00000E700000
38888F300000
ENDCHAR
STARTCHAR asciicircum
ENCODING 94
SWIDTH 272 0
DWIDTH 9 0
BBX 7 7 1 6
BITMAP
00000100
00009700
0005CC00
002A1E20
00A10970
073004D0
350000B0
ENDCHAR
STARTCHAR underscore
ENCODING 95
SWIDTH 356 0
DWIDTH 11 0
BBX 11 2 -1 -2
BITMAP
000111222220
3BCBA9887760
ENDCHAR
STARTCHAR grave
ENCODING 96
SWIDTH 155 0
DWIDTH 5 0
BBX 5 3 0 10
BITMAP
051000
2CD100
005810
ENDCHAR
STARTCHAR a
ENCODING 97
SWIDTH 294 0
DWIDTH 9 0
BBX 9 8 1 0
BITMAP
0019DFCB20
02C513D700
1D3001C000
7A00087000
D5004F2000
F4019E0000
E8384D1500
7E702E7000
ENDCHAR
STARTCHAR b
ENCODING 98
SWIDTH 247 0
DWIDTH 8 0
BBX 16 24 1 0
BITMAP
000000000005BEE4
0000000002A7315B
0000000027000004
0000000170000000
0000000700000000
0000005100000000
0000025000000000
0000070000000000
0000350000000000
0000900000000000
0002700000000000
0009200000000000
001A000000000000
0076000000000000
00C1000000000000
03B0000000000000
0874BE4000000000
0D74099000000000
2F50069000000000
6D00086000000000
98000B0000000000
C600640000000000
D706500000000000
8EB3000000000000
ENDCHAR
STARTCHAR c
ENCODING 99
SWIDTH 203 0
DWIDTH 7 0
BBX 6 8 1 0
BITMAP
0012A6
041054
170000
750000
C30000
F30040
F82740
7EB300
ENDCHAR
STARTCHAR d
ENCODING 100
SWIDTH 285 0
DWIDTH 9 0
BBX 20 24 1 0
BITMAP
00000000000000017DE3
000000000000002A6384
00000000000002800010
00000000000017000000
00000000000070000000
00000000000520000000
00000000001500000000
00000000006000000000
00000000034000000000
00000000080000000000
00000000350000000000
00000000900000000000
00000003800000000000
00000009300000000000
0000000C000000000000
00000058000000000000
001448D3000000000000
037002E0000000000000
1B0007A0000000000000
77000E60000000000000
C4006F30000000000000
F3037F11000000000000
F8473F26000000000000
7E601E90000000000000
ENDCHAR
STARTCHAR e
ENCODING 101
SWIDTH 206 0
DWIDTH 7 0
BBX 6 8 1 0
BITMAP
0049E3
0520C8
1805A1
7A7200
D30000
F30000
E80270
6EC700
ENDCHAR
STARTCHAR f
ENCODING 102
SWIDTH 156 0
DWIDTH 5 0
BBX 27 32 -10 -8
BITMAP
00000000000000000000005CFD20
0000000000000000000019744B90
0000000000000000000181000080
0000000000000000000710000000
0000000000000000006300000000
0000000000000000028000000000
0000000000000000091000000000
0000000000000000390000000000
0000000000000000A20000000000
0000000000000003B00000000000
0000000000000009600000000000
000000000000001E100000000000
000000000000006A000000000000
00000000000000C5000000000000
00000000000002F1000000000000
00000000000007B0000000000000
00000000000AFFFDC90000000000
0000000000000E30000000000000
0000000000004D00000000000000
0000000000009800000000000000
000000000000E200000000000000
000000000005C000000000000000
00000000000A6000000000000000
00000000002D0000000000000000
0000000000870000000000000000
0000000001C10000000000000000
0000000007500000000000000000
000000001A000000000000000000
0000000091000000000000000000
1400000620000000000000000000
4900026200000000000000000000
0BCA850000000000000000000000
ENDCHAR
STARTCHAR g
ENCODING 103
SWIDTH 210 0
DWIDTH 7 0
BBX 12 17 -4 -8
BITMAP
000000000143
000000129F20
000001400E20
000007100D00
00000C102A00
00000D51A300
000007EA9000
000000074000
0000000A4000
000000089000
04710002F200
3D000000A800
8A0000006C00
9C0000005C00
4F5000009800
09F83127C100
005BEFD70000
ENDCHAR
STARTCHAR h
ENCODING 104
SWIDTH 292 0
DWIDTH 9 0
BBX 18 24 0 0
BITMAP
00000000000006CED4
00000000000284118A
000000000026000007
000000000260000000
000000000700000000
000000007100000000
000000035000000000
000000090000000000
000000640000000000
000001A00000000000
000006500000000000
00000B000000000000
000057000000000000
0000B1000000000000
0003B0000000000000
000950000000000000
000D107DB000000000
004B151B9000000000
00A6502F2000000000
00E6007A0000000000
04E300C50000000000
08B000F20000000000
0D5001F26100000000
1D0000DA2000000000
ENDCHAR
STARTCHAR i
ENCODING 105
SWIDTH 149 0
DWIDTH 5 0
BBX 6 13 1 0
BITMAP
000002
000044
000370
000800
000000
018500
27C000
196000
1D0000
6A0000
A60000
D55200
BC3000
ENDCHAR
STARTCHAR j
ENCODING 106
SWIDTH 136 0
DWIDTH 4 0
BBX 17 21 -10 -8
BITMAP
000000000000000010
000000000000000620
000000000000006300
000000000000008000
000000000000000000
0000000000003B0000
0000000000049B0000
000000000000B70000
000000000000E20000
000000000004C00000
000000000009700000
00000000000D200000
00000000004A000000
0000000000A3000000
0000000002A0000000
000000000920000000
000000003700000000
100000019000000000
500000181000000000
740004710000000000
2CC973000000000000
ENDCHAR
STARTCHAR k
ENCODING 107
SWIDTH 259 0
DWIDTH 8 0
BBX 18 24 0 0
BITMAP
00000000000017CFC2
0000000000048301A7
000000000054000034
000000000530000000
000000003400000000
000000017000000000
000000081000000000
000000440000000000
000000900000000000
000006400000000000
00000A000000000000
000065000000000000
0000B0000000000000
000490000000000000
000940000000000000
000D00000000000000
004927CA0000000000
0097403E0000000000
00E500860000000000
03E487400000000000
06A4C0000000000000
0A71E1000000000000
0D3099002000000000
2C002CB60000000000
ENDCHAR
STARTCHAR l
ENCODING 108
SWIDTH 134 0
DWIDTH 4 0
BBX 15 24 1 0
BITMAP
000000000018DD10
0000000002C86B40
000000002A100210
0000000191000000
0000000810000000
0000005400000000
0000017000000000
0000061000000000
0000160000000000
0000810000000000
0002700000000000
0008200000000000
0019000000000000
0075000000000000
00B0000000000000
03A0000000000000
0950000000000000
0E10000000000000
3C00000000000000
8900000000000000
B600000000000000
E400000000000000
F423000000000000
CB30000000000000
ENDCHAR
STARTCHAR m
ENCODING 109
SWIDTH 413 0
DWIDTH 13 0
BBX 13 8 0 0
BITMAP
008E039C015D60
053D321F140A70
006B303D500D30
00B9007C104C00
01F200C7009700
06A002E100D300
0B40089000F260
1C000C3000DA10
ENDCHAR
STARTCHAR n
ENCODING 110
SWIDTH 291 0
DWIDTH 9 0
BBX 10 8 0 0
BITMAP
009E006DA0
053D150A80
007A402F20
00B8007A00
01F300C500
07A000F100
0C4002F151
3C0000DB20
ENDCHAR
STARTCHAR o
ENCODING 111
SWIDTH 225 0
DWIDTH 7 0
BBX 6 8 1 0
BITMAP
005DE5
0561AC
18004C
83004A
D10074
F00080
E61820
6EB200
ENDCHAR
STARTCHAR p
ENCODING 112
SWIDTH 261 0
DWIDTH 8 0
BBX 10 17 -2 -8
BITMAP
00001A8000
00016A53C8
00000C103E
000058002F
0000B1003C
0003900087
00093002C1
002E414B30
005EED8100
00A4000000
00E1000000
04B0000000
0870000000
0B40000000
0E20000000
0F10000000
1E95000000
ENDCHAR
STARTCHAR q
ENCODING 113
SWIDTH 269 0
DWIDTH 9 0
BBX 10 16 0 -8
BITMAP
0001555B91
0028100980
01B1002D00
086000A600
0E2006E000
2F004B8000
2F465E2000
0CC36B0000
0000B60000
0001F10000
0005C00000
0009800000
000D500000
001F200000
004F100000
004F940000
ENDCHAR
STARTCHAR r
ENCODING 114
SWIDTH 195 0
DWIDTH 6 0
BBX 7 8 1 0
BITMAP
2BB09E60
54C52420
05C20000
08900000
0C300000
2D000000
79000000
C4000000
ENDCHAR
STARTCHAR s
ENCODING 115
SWIDTH 188 0
DWIDTH 6 0
BBX 7 8 -1 0
BITMAP
00039690
000B4060
000B7010
0004E200
0000AA00
04103E00
1B003B00
09768200
ENDCHAR
STARTCHAR t
ENCODING 116
SWIDTH 171 0
DWIDTH 5 0
BBX 6 12 1 0
BITMAP
0001C1
000970
002D00
009700
49FEC7
06D000
0B7000
1F2000
5C0000
890010
9A0620
4EA200
ENDCHAR
STARTCHAR u
ENCODING 117
SWIDTH 299 0
DWIDTH 10 0
BBX 9 8 1 0
BITMAP
0085002C00
29B000A600
1C3003E100
3C000A9000
98004A6000
C6032C5000
E7440D5410
AD4009D400
ENDCHAR
STARTCHAR v
ENCODING 118
SWIDTH 271 0
DWIDTH 9 0
BBX 8 8 1 0
BITMAP
2BD005C5
43F00077
04C00094
069001C0
0A600940
0E208500
4D284000
8C600000
ENDCHAR
STARTCHAR w
ENCODING 119
SWIDTH 369 0
DWIDTH 12 0
BBX 12 8 0 0
BITMAP
08E3002207D1
21A800B103A5
008903C00055
007918900053
008957700060
009A28600230
00B808903500
00B103EA5000
ENDCHAR
STARTCHAR x
ENCODING 120
SWIDTH 263 0
DWIDTH 8 0
BBX 10 8 -1 0
BITMAP
0006C007E8
0023E17518
0000D64002
0000B90000
0000980000
02027E1000
17370A8051
2E8001CB30
ENDCHAR
STARTCHAR y
ENCODING 121
SWIDTH 280 0
DWIDTH 9 0
BBX 15 16 -6 -8
BITMAP
00000000184002C0
000000028B0008A0
00000001B4001E40
00000002D0009E00
000000088004A900
0000000B6025D300
0000000C6253C000
0000000AD5097000
00000000000E1000
0000000000590000
0300000000C20000
3700000004800000
950000000A100000
8800000082000000
3E30001820000000
04CB986000000000
ENDCHAR
STARTCHAR z
ENCODING 122
SWIDTH 238 0
DWIDTH 8 0
BBX 9 8 -1 0
BITMAP
0008EEC990
0044015900
0000027000
0000370000
0003700000
0036000310
04C4103700
297BEE9000
ENDCHAR
STARTCHAR braceleft
ENCODING 123
SWIDTH 291 0
DWIDTH 9 0
BBX 11 23 2 -3
BITMAP
000000188720
000002D30000
00000B600000
00002F100000
00005C000000
00007A000000
000098000000
0000A6000000
0000E3000000
0004B0000000
004A10000000
0AE300000000
009D00000000
004F00000000
006B00000000
00B600000000
02F100000000
08A000000000
0D5000000000
3F1000000000
4F0000000000
1F4000000000
05B840000000
ENDCHAR
STARTCHAR bar
ENCODING 124
SWIDTH 162 0
DWIDTH 5 0
BBX 2 29 2 -8
BITMAP
74
74
74
74
74
74
74
74
74
74
74
74
74
74
74
74
74
74
74
74
74
74
74
74
74
74
74
74
74
ENDCHAR
STARTCHAR braceright
ENCODING 125
SWIDTH 285 0
DWIDTH 9 0
BBX 10 24 0 -4
BITMAP
0000028A50
00000001E5
00000000A9
00000000B8
00000000E4
00000004E0
0000000A80
0000001E20
0000005C00
0000009900
0000008C00
0000002CC1
0000005930
000004B000
00000B5000
00001F1000
00003E0000
00004D0000
00006B0000
0000A80000
0001E30000
0009800000
68A6000000
1000000000
ENDCHAR
STARTCHAR asciitilde
ENCODING 126
SWIDTH 383 0
DWIDTH 12 0
BBX 11 4 1 3
BITMAP
000000000020
019ED9412820
07214AEEA200
210000000000
ENDCHAR
STARTCHAR space.dup1
ENCODING 160
SWIDTH 150 0
DWIDTH 5 0
BBX 1 1 0 0
BITMAP
00
ENDCHAR
STARTCHAR exclamdown
ENCODING 161
SWIDTH 189 0
DWIDTH 6 0
BBX 9 17 -3 -9
BITMAP
00000006B0
0000000D50
0000000000
0000001000
0000009000
0000045000
00000A0000
0000380000
0000A20000
0002B00000
0009600000
001E100000
008A000000
01E5000000
07F1000000
0DB0000000
6A10000000
ENDCHAR
STARTCHAR cent
ENCODING 162
SWIDTH 194 0
DWIDTH 6 0
BBX 7 16 0 -3
BITMAP
00000020
00000260
00000810
00005F70
0030B680
0622B000
0C095000
4C1D0000
6C590000
6EB30000
1CC20000
07000000
07000000
53000000
80000000
10000000
ENDCHAR
STARTCHAR sterling
ENCODING 163
SWIDTH 344 0
DWIDTH 11 0
BBX 11 10 0 0
BITMAP
00000005CE40
000000652890
000003700040
00000B200000
00014E664000
0017A9100000
0000A3000000
0012A0000000
37BFD7201500
A9647CEEA200
ENDCHAR
STARTCHAR currency
ENCODING 164
SWIDTH 344 0
DWIDTH 11 0
BBX 11 10 0 0
BITMAP
001A00000490
000A9DEC8B10
00077117D000
00360000A200
009000008300
00A000009100
00A100038000
006631190000
043000071000
440000026000
ENDCHAR
STARTCHAR yen
ENCODING 165
SWIDTH 309 0
DWIDTH 10 0
BBX 11 10 0 0
BITMAP
04BB00039C40
000A50330020
000591200000
0004A2000000
04BCEFF30000
0006A0000000
002970000000
1ABEFFA00000
001E10000000
003D30000000
ENDCHAR
STARTCHAR brokenbar
ENCODING 166
SWIDTH 162 0
DWIDTH 5 0
BBX 2 29 2 -8
BITMAP
64
64
64
64
64
64
64
64
64
64
42
00
00
00
00
00
00
00
42
64
64
64
64
64
64
64
64
64
64
ENDCHAR
STARTCHAR section
ENCODING 167
SWIDTH 395 0
DWIDTH 13 0
BBX 18 25 -2 -8
BITMAP
000000000002578500
00000000028D868E90
0000000046910003F2
0000000296400000D1
0000000A2B20000090
0000001D0D10000110
0000004C0D20000000
0000006B0C50000000
0000006C0A80000000
0000005E07B0000000
0000003F13F0000000
0000001F50F4000000
0000000C80C7000000
00000008B09B000000
00000005E06E000000
00000001F33F100000
00000000C61F200000
00000000991F200000
023000007A1F100000
0A0000006A3C000000
590000006867000000
9B00000084B1000000
7F400001A940000000
0CF9436DA300000000
006ABA840000000000
ENDCHAR
STARTCHAR dieresis
ENCODING 168
SWIDTH 174 0
DWIDTH 6 0
BBX 5 2 0 10
BITMAP
1B23B0
4C0870
ENDCHAR
STARTCHAR copyright
ENCODING 169
SWIDTH 331 0
DWIDTH 11 0
BBX 9 9 1 3
BITMAP
00028A8200
0068214C20
056289A390
09080050A0
1836000070
0848001240
080A861500
0262013000
0001100000
ENDCHAR
STARTCHAR ordfeminine
ENCODING 170
SWIDTH 226 0
DWIDTH 7 0
BBX 6 4 1 6
BITMAP
0178C2
090370
280720
290860
ENDCHAR
STARTCHAR guillemotleft
ENCODING 171
SWIDTH 289 0
DWIDTH 9 0
BBX 10 8 0 0
BITMAP
00000730CA
0002922F70
004915F300
06708F1000
3E32FC0000
07E48FD000
008E29F900
000B30FC00
ENDCHAR
STARTCHAR logicalnot
ENCODING 172
SWIDTH 265 0
DWIDTH 8 0
BBX 8 6 0 3
BITMAP
00111121
5FEDDDE9
000000C5
000002E0
00000890
00000210
ENDCHAR
STARTCHAR registered
ENCODING 174
SWIDTH 331 0
DWIDTH 11 0
BBX 9 8 1 4
BITMAP
0007BCC600
00A5001B50
0745AA31A0
0904335090
1809740070
0918630430
0942184500
0186443000
ENDCHAR
STARTCHAR degree
ENCODING 176
SWIDTH 104 0
DWIDTH 3 0
BBX 4 4 2 9
BITMAP
09E3
4638
6225
2CA1
ENDCHAR
STARTCHAR plusminus
ENCODING 177
SWIDTH 301 0
DWIDTH 10 0
BBX 9 9 0 0
BITMAP
0000002000
0000048000
00000A2000
00001C0000
02EFFFFF80
0000930000
0000B00000
0002500000
5AAAAA9100
ENDCHAR
STARTCHAR twosuperior
ENCODING 178
SWIDTH 215 0
DWIDTH 7 0
BBX 5 5 1 5
BITMAP
0058B0
0130B0
000460
016300
38A950
ENDCHAR
STARTCHAR threesuperior
ENCODING 179
SWIDTH 190 0
DWIDTH 6 0
BBX 5 5 1 5
BITMAP
025A20
000810
016B20
100920
475500
ENDCHAR
STARTCHAR acute
ENCODING 180
SWIDTH 157 0
DWIDTH 5 0
BBX 4 3 1 10
BITMAP
05E3
1D70
6200
ENDCHAR
STARTCHAR mu
ENCODING 181
SWIDTH 324 0
DWIDTH 10 0
BBX 11 13 -1 -5
BITMAP
0000093004B0
000079000C40
0001E2006C00
0008A001B700
001E5004D300
006E3041F200
00CA4531F340
03C7C300BC20
087000000000
0D3000000000
2F0000000000
5E0000000000
760000000000
ENDCHAR
STARTCHAR paragraph
ENCODING 182
SWIDTH 392 0
DWIDTH 13 0
BBX 17 18 -3 -8
BITMAP
00000000000466DA50
0000000017EE04E000
00000002CFFB08A000
0000001DFFF70C6000
0000008FFFF31F2000
000000DFFFE05C0000
000000FFFFA0A80000
000000DFFF50E30000
0000007FFF15D00000
00000006EB0A800000
00000000671E300000
00000000B26C000000
00000001B0C5000000
2700000745C0000000
B30000191D30000000
E4000074C400000000
BB0007AB3000000000
2ADABA400000000000
ENDCHAR
STARTCHAR periodcentered
ENCODING 183
SWIDTH 112 0
DWIDTH 4 0
BBX 2 2 1 4
BITMAP
8A
D4
ENDCHAR
STARTCHAR cedilla
ENCODING 184
SWIDTH 115 0
DWIDTH 4 0
BBX 3 4 0 -4
BITMAP
0170
0380
0260
2600
ENDCHAR
STARTCHAR onesuperior
ENCODING 185
SWIDTH 174 0
DWIDTH 6 0
BBX 4 5 1 5
BITMAP
0CD8
00B1
0560
0B00
4800
ENDCHAR
STARTCHAR ordmasculine
ENCODING 186
SWIDTH 178 0
DWIDTH 6 0
BBX 4 4 1 6
BITMAP
039A
1709
5404
4710
ENDCHAR
STARTCHAR guillemotright
ENCODING 187
SWIDTH 276 0
DWIDTH 9 0
BBX 10 8 -1 0
BITMAP
00A906B000
004F42E600
0007E25F40
00009C06E1
0002921940
0057029100
0650480000
6404600000
ENDCHAR
STARTCHAR onequarter
ENCODING 188
SWIDTH 435 0
DWIDTH 14 0
BBX 13 13 1 -2
BITMAP
00000000009300
0004B200075000
00588000670000
000C1004800010
0058002A001920
00B201A101A600
03B00A1013D000
086093031A6000
0007505CEF7100
00570000390000
03900000740000
1A100000000000
21000000000000
ENDCHAR
STARTCHAR onehalf
ENCODING 189
SWIDTH 434 0
DWIDTH 14 0
BBX 13 13 1 -2
BITMAP
00000000009400
0004B200076000
00578000670000
000B1004900000
0048002A05A700
00B201A1532D30
02B00910300B20
08608300005800
00075000065000
00470004610200
0290007ACB9200
1A100000000000
21000000000000
ENDCHAR
STARTCHAR threequarters
ENCODING 190
SWIDTH 476 0
DWIDTH 15 0
BBX 14 13 1 -2
BITMAP
00000000000570
0047C300003900
0030850002A000
000580001A1000
0045D300A20036
000085093006C0
41009075016940
18651570261B00
00003902B68A30
0001A00002D200
001A1000039000
00930000000000
00300000000000
ENDCHAR
STARTCHAR questiondown
ENCODING 191
SWIDTH 285 0
DWIDTH 9 0
BBX 11 17 -2 -9
BITMAP
0000000005C0
000000000C60
000000000000
000000000000
00000009D100
00000001E100
000000085000
000002840000
000296000000
007910000000
077000000000
3D0000000000
7A0000000000
8B0000260000
6F6002900000
0BFDCA100000
003520000000
ENDCHAR
STARTCHAR Agrave
ENCODING 192
SWIDTH 996 0
DWIDTH 32 0
BBX 32 25 1 0
BITMAP
00000000000000000000000000030000
000000000000000000000000002CC200
00000000000000000000000000004960
00000000000000000000000000000000
0000000000000000028CEFEDB8520000
0000000000000000683000247BFFD940
00000000000000053000000000149FD1
0000000000000025000000000001CD30
000000000000005000000000002D7700
00000000000000500000000003D39100
0000000000000140000000003C237000
000000000000000000000003C2091000
00000000000000000000003C101A0000
0000000000000000000002B100660000
000000000000000000001B1000B20000
00000000000000000001A20001D00000
0000000000000008FFFFFEEEDDB00000
00100000000000000066000005A00000
06200000000000000760000008800000
1800000000000000840000000A800000
4800000000000029300000000B800000
5C00000000000691000000000C900010
2F9000000005B500000000000BC00250
09FD75446AC700000000000007FA8800
007CEFEC940000000000000001AE8000
ENDCHAR
STARTCHAR Aacute
ENCODING 193
SWIDTH 996 0
DWIDTH 32 0
BBX 32 25 1 0
BITMAP
00000000000000000000000000000032
000000000000000000000000000006E8
00000000000000000000000000018610
00000000000000000000000000000000
0000000000000000028CEFEDB8520000
0000000000000000683000247BFFD940
00000000000000053000000000149FD1
0000000000000025000000000001CD30
000000000000005000000000002D7700
00000000000000500000000003D39100
0000000000000140000000003C237000
000000000000000000000003C2091000
00000000000000000000003C101A0000
0000000000000000000002B100660000
000000000000000000001B1000B20000
00000000000000000001A20001D00000
0000000000000008FFFFFEEEDDB00000
00100000000000000066000005A00000
06200000000000000760000008800000
1800000000000000840000000A800000
4800000000000029300000000B800000
5C00000000000691000000000C900010
2F9000000005B500000000000BC00250
09FD75446AC700000000000007FA8800
007CEFEC940000000000000001AE8000
ENDCHAR
STARTCHAR Acircumflex
ENCODING 194
SWIDTH 996 0
DWIDTH 32 0
BBX 33 25 1 0
BITMAP
0000000000000000000000000000004000
00000000000000000000000000001BF600
0000000000000000000000000004835C80
0000000000000000000000000000000000
0000000000000000028CEFEDB852000000
0000000000000000683000247BFFD94000
00000000000000053000000000149FD100
0000000000000025000000000001CD3000
000000000000005000000000002D770000
00000000000000500000000003D3910000
0000000000000140000000003C23700000
000000000000000000000003C209100000
00000000000000000000003C101A000000
0000000000000000000002B10066000000
000000000000000000001B1000B2000000
00000000000000000001A20001D0000000
0000000000000008FFFFFEEEDDB0000000
00100000000000000066000005A0000000
0620000000000000076000000880000000
1800000000000000840000000A80000000
4800000000000029300000000B80000000
5C00000000000691000000000C90001000
2F9000000005B500000000000BC0025000
09FD75446AC700000000000007FA880000
007CEFEC940000000000000001AE800000
ENDCHAR
STARTCHAR Atilde
ENCODING 195
SWIDTH 996 0
DWIDTH 32 0
BBX 34 25 1 0
BITMAP
0000000000000000000000000000000001
0000000000000000000000000001CB1005
0000000000000000000000000008FFE791
0000000000000000000000000018159720
0000000000000000028CEFEDB852000000
0000000000000000683000247BFFD94000
00000000000000053000000000149FD100
0000000000000025000000000001CD3000
000000000000005000000000002D770000
00000000000000500000000003D3910000
0000000000000140000000003C23700000
000000000000000000000003C209100000
00000000000000000000003C101A000000
0000000000000000000002B10066000000
000000000000000000001B1000B2000000
00000000000000000001A20001D0000000
0000000000000008FFFFFEEEDDB0000000
00100000000000000066000005A0000000
0620000000000000076000000880000000
1800000000000000840000000A80000000
4800000000000029300000000B80000000
5C00000000000691000000000C90001000
2F9000000005B500000000000BC0025000
09FD75446AC700000000000007FA880000
007CEFEC940000000000000001AE800000
ENDCHAR
STARTCHAR Adieresis
ENCODING 196
SWIDTH 996 0
DWIDTH 32 0
BBX 33 24 1 0
BITMAP
0000000000000000000000000000190550
00000000000000000000000000004B0C30
0000000000000000000000000000000000
0000000000000000028CEFEDB852000000
0000000000000000683000247BFFD94000
00000000000000053000000000149FD100
0000000000000025000000000001CD3000
000000000000005000000000002D770000
00000000000000500000000003D3910000
0000000000000140000000003C23700000
000000000000000000000003C209100000
00000000000000000000003C101A000000
0000000000000000000002B10066000000
000000000000000000001B1000B2000000
00000000000000000001A20001D0000000
0000000000000008FFFFFEEEDDB0000000
00100000000000000066000005A0000000
0620000000000000076000000880000000
1800000000000000840000000A80000000
4800000000000029300000000B80000000
5C00000000000691000000000C90001000
2F9000000005B500000000000BC0025000
09FD75446AC700000000000007FA880000
007CEFEC940000000000000001AE800000
ENDCHAR
STARTCHAR Aring
ENCODING 197
SWIDTH 996 0
DWIDTH 32 0
BBX 33 25 1 0
BITMAP
0000000000000000000000000000028100
0000000000000000000000000000040710
00000000000000000000000000000A1800
0000000000000000000000000000047100
0000000000000000028CEFEDB852000000
0000000000000000683000247BFFD94000
00000000000000053000000000149FD100
0000000000000025000000000001CD3000
000000000000005000000000002D770000
00000000000000500000000003D3910000
0000000000000140000000003C23700000
000000000000000000000003C209100000
00000000000000000000003C101A000000
0000000000000000000002B10066000000
000000000000000000001B1000B2000000
00000000000000000001A20001D0000000
0000000000000008FFFFFEEEDDB0000000
00100000000000000066000005A0000000
0620000000000000076000000880000000
1800000000000000840000000A80000000
4800000000000029300000000B80000000
5C00000000000691000000000C90001000
2F9000000005B500000000000BC0025000
09FD75446AC700000000000007FA880000
007CEFEC940000000000000001AE800000
ENDCHAR
STARTCHAR AE
ENCODING 198
SWIDTH 1271 0
DWIDTH 41 0
BBX 42 21 1 0
BITMAP
0000000000000000028CEFEDB8520000006789C930
0000000000000000683000247BFFD9402A200018F3
00000000000000053000000000149FD1C3000000A2
0000000000000025000000000001CD54E000000060
000000000000005000000000002D7906E000000010
00000000000000500000000003D47404F500000000
0000000000000050000000003D30A000BE60000000
000000000000000000000003C20470015EFA000000
00000000000000000000003C200932996430000000
0000000000000000000002C2000D4A100000000000
000000000000000000001B20003DA0000000000000
00000000000000000001A200006F20000000000000
0000000000000003DFFFFFFFFFFB00000000000000
00200000000000000076000000A700000000000000
06200000000000000760000000C600000000000000
19000000000000008400000000D600000000004100
580000000000002A3000000000D800000000008000
5C000000000006910000000000BC00000000028000
2F9000000005B60000000000006F600000001C3000
09FD85457AD7000000000000000AF6000004C80000
006CEFEC940000000000000000005BCA8886100000
ENDCHAR
STARTCHAR Ccedilla
ENCODING 199
SWIDTH 557 0
DWIDTH 18 0
BBX 19 24 2 -3
BITMAP
0000000047899ADC9200
0000004740000005DE10
00001940000000001D00
0002A200000000000700
001B2000000000001100
00970000000000000000
03E10000000000000000
0B800000000000000000
1F400000000000000000
6F100000000000000000
9E000000000000000000
BD000000000000000000
CD000000000000000000
BF000000000000000000
8F300000000000010000
4F800000000000340000
0BE10000000000910000
02E90000000004A00000
002C900000003E300000
00006A721138E9000000
00000012B75300000000
00000002900000000000
00000002800000000000
00000016100000000000
ENDCHAR
STARTCHAR Egrave
ENCODING 200
SWIDTH 463 0
DWIDTH 15 0
BBX 17 25 0 0
BITMAP
000000000002100000
00000000001BD30000
000000000000397000
000000000000000000
0000000005679CA500
000000028200006F60
0000001C1000000840
0000007A0000000600
0000009B0000000000
0000007F4000000000
0000001CF820000000
00000003DFA0000000
000004531000000000
000160000000000000
001800000000000000
00B200000000000000
05C000000000000000
0A9000000000000000
0E8000000000000000
1F8000000000033000
0FA000000000080000
0CE100000000290000
05F800000001B40000
008F8000004C900000
0004ACA88862000000
ENDCHAR
STARTCHAR Eacute
ENCODING 201
SWIDTH 463 0
DWIDTH 15 0
BBX 17 25 0 0
BITMAP
000000000000035000
0000000000005E9100
000000000007710000
000000000000000000
0000000005679CA500
000000028200006F60
0000001C1000000840
0000007A0000000600
0000009B0000000000
0000007F4000000000
0000001CF820000000
00000003DFA0000000
000004531000000000
000160000000000000
001800000000000000
00B200000000000000
05C000000000000000
0A9000000000000000
0E8000000000000000
1F8000000000033000
0FA000000000080000
0CE100000000290000
05F800000001B40000
008F8000004C900000
0004ACA88862000000
ENDCHAR
STARTCHAR Ecircumflex
ENCODING 202
SWIDTH 463 0
DWIDTH 15 0
BBX 17 25 0 0
BITMAP
000000000000400000
000000000007FB1000
00000000018629C100
000000000000000000
0000000005679CA500
000000028200006F60
0000001C1000000840
0000007A0000000600
0000009B0000000000
0000007F4000000000
0000001CF820000000
00000003DFA0000000
000004531000000000
000160000000000000
001800000000000000
00B200000000000000
05C000000000000000
0A9000000000000000
0E8000000000000000
1F8000000000033000
0FA000000000080000
0CE100000000290000
05F800000001B40000
008F8000004C900000
0004ACA88862000000
ENDCHAR
STARTCHAR Edieresis
ENCODING 203
SWIDTH 463 0
DWIDTH 15 0
BBX 17 24 0 0
BITMAP
000000000004619000
00000000000A54B000
000000000000000000
0000000005679CA500
000000028200006F60
0000001C1000000840
0000007A0000000600
0000009B0000000000
0000007F4000000000
0000001CF820000000
00000003DFA0000000
000004531000000000
000160000000000000
001800000000000000
00B200000000000000
05C000000000000000
0A9000000000000000
0E8000000000000000
1F8000000000033000
0FA000000000080000
0CE100000000290000
05F800000001B40000
008F8000004C900000
0004ACA88862000000
ENDCHAR
STARTCHAR Igrave
ENCODING 204
SWIDTH 514 0
DWIDTH 16 0
BBX 23 24 0 0
BITMAP
000000000000000161000000
00000000000000027A710000
000000000000000000120000
00000000000000000059CD30
00000000000000006EEC9200
000000000000002CB5150000
00000000000004D500910000
0000000000002C2004900000
000000000001B1000B400000
00000000000730002E000000
00000000001800007A000000
0000000000620000B6000000
0000000000700001E1000000
0000000000600004B0000000
000000000060000A50000000
000000000060001D00000000
000000000042006600000000
00330000000620B300000000
0660000000003A6100000000
3B0000000000480000000000
990000000003800000000000
9E1000000057000000000000
2EC510136940000000000000
029DFEC94000000000000000
ENDCHAR
STARTCHAR Iacute
ENCODING 205
SWIDTH 514 0
DWIDTH 16 0
BBX 23 25 0 0
BITMAP
000000000000000000010000
0000000000000000007F5000
00000000000000002A920000
000000000000000020000000
00000000000000000059CD30
00000000000000006EEC9200
000000000000002CB5150000
00000000000004D500910000
0000000000002C2004900000
000000000001B1000B400000
00000000000730002E000000
00000000001800007A000000
0000000000620000B6000000
0000000000700001E1000000
0000000000600004B0000000
000000000060000A50000000
000000000060001D00000000
000000000042006600000000
00330000000620B300000000
0660000000003A6100000000
3B0000000000480000000000
990000000003800000000000
9E1000000057000000000000
2EC510136940000000000000
029DFEC94000000000000000
ENDCHAR
STARTCHAR Icircumflex
ENCODING 206
SWIDTH 514 0
DWIDTH 16 0
BBX 23 25 0 0
BITMAP
000000000000000000220000
000000000000000003EE3000
00000000000000006827D400
000000000000000000000000
00000000000000000059CD30
00000000000000006EEC9200
000000000000002CB5150000
00000000000004D500910000
0000000000002C2004900000
000000000001B1000B400000
00000000000730002E000000
00000000001800007A000000
0000000000620000B6000000
0000000000700001E1000000
0000000000600004B0000000
000000000060000A50000000
000000000060001D00000000
000000000042006600000000
00330000000620B300000000
0660000000003A6100000000
3B0000000000480000000000
990000000003800000000000
9E1000000057000000000000
2EC510136940000000000000
029DFEC94000000000000000
ENDCHAR
STARTCHAR Idieresis
ENCODING 207
SWIDTH 514 0
DWIDTH 16 0
BBX 23 24 0 0
BITMAP
000000000000000005519000
00000000000000000C369000
000000000000000000000000
00000000000000000059CD30
00000000000000006EEC9200
000000000000002CB5150000
00000000000004D500910000
0000000000002C2004900000
000000000001B1000B400000
00000000000730002E000000
00000000001800007A000000
0000000000620000B6000000
0000000000700001E1000000
0000000000600004B0000000
000000000060000A50000000
000000000060001D00000000
000000000042006600000000
00330000000620B300000000
0660000000003A6100000000
3B0000000000480000000000
990000000003800000000000
9E1000000057000000000000
2EC510136940000000000000
029DFEC94000000000000000
ENDCHAR
STARTCHAR Eth
ENCODING 208
SWIDTH 800 0
DWIDTH 26 0
BBX 25 22 1 0
BITMAP
00000000000000000001410000
000000017BCEEC940186100000
00000068200025BFDC20000000
0000063000000005EFA1000000
000034000000001D33DC200000
0000600000000099001CD10000
00005000000002E20002DB0000
00001000000008A000003F6000
0000000000000E50000008E100
0000000000005E00000001E700
0000000000009A00000000AD00
000000000000E4000000005F20
0000000016AEFEFFF200002F50
00000001A748C2100000000E60
00000000000D50000000000D50
00000000005D00000000000D40
0000000000C500000000000D00
0000000005B000000000002900
003665202D2000000000007100
28779BEED40000000000023000
D00000588C9510000000320000
BC9876200037AB998643000000
ENDCHAR
STARTCHAR Ntilde
ENCODING 209
SWIDTH 796 0
DWIDTH 25 0
BBX 40 25 -5 0
BITMAP
0000000000000000000000000000000100000000
00000000000000000000000002D9001400000000
0000000000000000000000000CFFC78000000000
0000000000000000000000004617961000000000
000000000006CFEC71010000000000000003BEB1
0000000002A52248DE7A000000000000004E87D7
000000000810000006ED00000000000003D30018
0000000011000000004FB000000000001C200001
0000000000000000005BFA000000000094000000
000000000000000000836F700000000390000000
000000000000000000A008F30000000910000000
000000000000000000B000CC0000002700000000
00000000000000000470003F6000008100000000
000000000000000008200009E000018000000000
00000000000000000A000002F600053000000000
0030000000000000460000009D00080000000000
0630000000000000900000003F50170000000000
1900000000000004600000000BB0440000000000
660000000000000A0000000005F2710000000000
86000000000000730000000000E7800000000000
8A000000000006700000000000AC700000000000
5F3000000000790000000000005F700000000000
0CE50000002B800000000000001F500000000000
02DFD9768CD5000000000000000B400000000000
0016CEFEA6000000000000000006300000000000
ENDCHAR
STARTCHAR Ograve
ENCODING 210
SWIDTH 608 0
DWIDTH 19 0
BBX 19 24 2 0
BITMAP
0000000002D910000000
00000000001695000000
00000000000000000000
0000000039CEFD920000
00000029731026DF6000
0000056000000009F400
0000630000000000CD00
00063000000000003F50
00270000000000000D90
00B100000000000009C0
048000000000000007D0
0B3000000000000006D0
1E0000000000000007B0
5C000000000000000890
8B000000000000000A50
9A000000000000000E10
AB000000000000004800
9D00000000000000B100
7F200000000000056000
3F800000000000180000
0BF30000000001810000
02EE3000000047000000
003EFA41025940000000
00017CEFDA5000000000
ENDCHAR
STARTCHAR Oacute
ENCODING 211
SWIDTH 608 0
DWIDTH 19 0
BBX 19 25 2 0
BITMAP
00000000000025100000
000000000003DA100000
00000000006820000000
00000000000000000000
0000000039CEFD920000
00000029731026DF6000
0000056000000009F400
0000630000000000CD00
00063000000000003F50
00270000000000000D90
00B100000000000009C0
048000000000000007D0
0B3000000000000006D0
1E0000000000000007B0
5C000000000000000890
8B000000000000000A50
9A000000000000000E10
AB000000000000004800
9D00000000000000B100
7F200000000000056000
3F800000000000180000
0BF30000000001810000
02EE3000000047000000
003EFA41025940000000
00017CEFDA5000000000
ENDCHAR
STARTCHAR Ocircumflex
ENCODING 212
SWIDTH 608 0
DWIDTH 19 0
BBX 19 25 2 0
BITMAP
00000000000050000000
000000000008C9000000
00000000027208B10000
00000000000000000000
0000000039CEFD920000
00000029731026DF6000
0000056000000009F400
0000630000000000CD00
00063000000000003F50
00270000000000000D90
00B100000000000009C0
048000000000000007D0
0B3000000000000006D0
1E0000000000000007B0
5C000000000000000890
8B000000000000000A50
9A000000000000000E10
AB000000000000004800
9D00000000000000B100
7F200000000000056000
3F800000000000180000
0BF30000000001810000
02EE3000000047000000
003EFA41025940000000
00017CEFDA5000000000
ENDCHAR
STARTCHAR Otilde
ENCODING 213
SWIDTH 608 0
DWIDTH 19 0
BBX 19 25 2 0
BITMAP
00000000000000010000
0000000000BD50050000
00000000079BFC810000
00000000030020000000
0000000039CEFD920000
00000029731026DF6000
0000056000000009F400
0000630000000000CD00
00063000000000003F50
00270000000000000D90
00B100000000000009C0
048000000000000007D0
0B3000000000000006D0
1E0000000000000007B0
5C000000000000000890
8B000000000000000A50
9A000000000000000E10
AB000000000000004800
9D00000000000000B100
7F200000000000056000
3F800000000000180000
0BF30000000001810000
02EE3000000047000000
003EFA41025940000000
00017CEFDA5000000000
ENDCHAR
STARTCHAR Odieresis
ENCODING 214
SWIDTH 608 0
DWIDTH 19 0
BBX 19 24 2 0
BITMAP
00000000001905500000
00000000004B0C300000
00000000000000000000
0000000039CEFD920000
00000029731026DF6000
0000056000000009F400
0000630000000000CD00
00063000000000003F50
00270000000000000D90
00B100000000000009C0
048000000000000007D0
0B3000000000000006D0
1E0000000000000007B0
5C000000000000000890
8B000000000000000A50
9A000000000000000E10
AB000000000000004800
9D00000000000000B100
7F200000000000056000
3F800000000000180000
0BF30000000001810000
02EE3000000047000000
003EFA41025940000000
00017CEFDA5000000000
ENDCHAR
STARTCHAR multiply
ENCODING 215
SWIDTH 301 0
DWIDTH 10 0
BBX 8 9 1 0
BITMAP
00000001
00740078
001A0590
00096800
0005C000
002A9200
02B13900
1C200900
01000000
ENDCHAR
STARTCHAR Oslash
ENCODING 216
SWIDTH 605 0
DWIDTH 19 0
BBX 19 23 2 -1
BITMAP
00000000000000003000
0000000039CEEC747000
00000039731126DF3000
00000650000001CEE300
0000720000000A53EB00
00062000000069008F30
004500000002C0001F80
00A00000000C20000BA0
056000000095000009B0
0C1000000490000008B0
2D0000001B10000008A0
6B000000B30000000980
99000007600000000B30
B900003A000000001D00
BA0001B1000000005700
AD00094000000000A100
8F305800000000055000
4FB2B000000000180000
0CFD2000000001700000
03FD3000000047000000
01AEF941025940000000
08118CEFDA5000000000
14000000000000000000
ENDCHAR
STARTCHAR Ugrave
ENCODING 217
SWIDTH 717 0
DWIDTH 23 0
BBX 25 24 1 0
BITMAP
00000000000000005100000000
0000000000000003CD30000000
00000000000000000385000000
000016BDFEC940000000000AB0
0005A521247BE3000000004F20
0065000000073000000000B800
0440000000830000000003E100
070000000650000000000A8000
420000003900000000002F2000
60000000B100000000009B0000
60000007700000000002F50000
6000001D000000000009E00000
6000007800000000002F900000
500000D200000000008E400000
000004D00000000003AE000000
0000089000000000099A000000
00000C700000000054D6000000
00000E500000000181F2000000
00001F400000000814E0000000
00002F400000006307C0000000
00002F500000054008B0001000
00000E900000540009C0053000
000009F71148300007F8950000
000001AEEB60000002DD400000
ENDCHAR
STARTCHAR Uacute
ENCODING 218
SWIDTH 717 0
DWIDTH 23 0
BBX 25 24 1 0
BITMAP
00000000000000000004500000
0000000000000000007E700000
00000000000000001861000000
000016BDFEC940000000000AB0
0005A521247BE3000000004F20
0065000000073000000000B800
0440000000830000000003E100
070000000650000000000A8000
420000003900000000002F2000
60000000B100000000009B0000
60000007700000000002F50000
6000001D000000000009E00000
6000007800000000002F900000
500000D200000000008E400000
000004D00000000003AE000000
0000089000000000099A000000
00000C700000000054D6000000
00000E500000000181F2000000
00001F400000000814E0000000
00002F400000006307C0000000
00002F500000054008B0001000
00000E900000540009C0053000
000009F71148300007F8950000
000001AEEB60000002DD400000
ENDCHAR
STARTCHAR Ucircumflex
ENCODING 219
SWIDTH 718 0
DWIDTH 23 0
BBX 25 24 1 0
BITMAP
000000000000000002D2000000
0000000000000000299C100000
00000000000000036008C00000
000016BDFEC940000000000AB0
0005A521247BE3000000004F20
0065000000073000000000B800
0440000000830000000003E100
070000000650000000000A8000
420000003900000000002F2000
60000000B100000000009B0000
60000007700000000002F50000
6000001D000000000009E00000
6000007800000000002F900000
500000D200000000008E400000
000004D00000000003AE000000
0000089000000000099A000000
00000C700000000054D6000000
00000E500000000181F2000000
00001F400000000814E0000000
00002F400000006307C0000000
00002F500000054008B0001000
00000E900000540009C0053000
000009F71148300007F8950000
000001AEEB60000002DD400000
ENDCHAR
STARTCHAR Udieresis
ENCODING 220
SWIDTH 718 0
DWIDTH 23 0
BBX 25 24 1 0
BITMAP
00000000000000003808100000
0000000000000000972C000000
00000000000000000000000000
000016BDFEC940000000000AB0
0005A521247BE3000000004F20
0065000000073000000000B800
0440000000830000000003E100
070000000650000000000A8000
420000003900000000002F2000
60000000B100000000009B0000
60000007700000000002F50000
6000001D000000000009E00000
6000007800000000002F900000
500000D200000000008E400000
000004D00000000003AE000000
0000089000000000099A000000
00000C700000000054D6000000
00000E500000000181F2000000
00001F400000000814E0000000
00002F400000006307C0000000
00002F500000054008B0001000
00000E900000540009C0053000
000009F71148300007F8950000
000001AEEB60000002DD400000
ENDCHAR
STARTCHAR Yacute
ENCODING 221
SWIDTH 662 0
DWIDTH 21 0
BBX 28 28 0 -4
BITMAP
0000000000000000000000100000
000000000000000000001BD20000
0000000000000000000585000000
000000000002AEA000000000005B
00000000004717F00000000001E6
00000000026004F00000000007D0
00000000000006D0000000000D60
0000000000000A90000000007E00
0000000000000E5000000001E700
0000000000003F1000000008E000
0000000000007B000000002E6000
000000000000C600000000AD0000
000000000001F200000005F50000
000000000005C00000001CC00000
000000000009900000008C400000
00000030000C600000077A000000
00027740000F40000055B1000000
00660000001F4000065660000000
06600000000DB214931A00000000
1C0000000004DEC6008200000000
7900000000000000055000000000
A700000000000000270000000000
B800000000000001800000000000
AB00000000000017100000000000
7F20000000000271000000000000
1EC1000000006700000000000000
04ED621124893000000000000000
0029DFFDB7200000000000000000
ENDCHAR
STARTCHAR Thorn
ENCODING 222
SWIDTH 745 0
DWIDTH 24 0
BBX 25 22 1 0
BITMAP
00000000000000000000055000
00000000000000000001920000
0000000000000000000B200000
00000000000000000087000000
000000000000000002E1000000
0000000000000038AEFDA30000
00000000000017401F44AF7000
00000000000081006D0007F500
0000000000051000B90000CC00
0000000000050001F500007F10
0000000000000005F100005F10
0000000000000009A000005F00
000000000000000E5000008B00
005100000000005D000001E300
06100000000000B700001B6000
17000000000007E10015A40000
46000000000009766663000000
67000000000039000000000000
4C0000000001A1000000000000
0D700000002910000000000000
03EA4102488000000000000000
0029EFEC720000000000000000
ENDCHAR
STARTCHAR germandbls
ENCODING 223
SWIDTH 304 0
DWIDTH 10 0
BBX 29 31 -11 -8
BITMAP
0000000000000000000000135AB200
000000000000000000000110009D00
000000000000000000001000004F10
000000000000000000030000005F00
000000000000000000400000008B00
00000000000000000320000002E400
0000000000000000070000001C8000
000000000000000063000001C90000
00000000000000009000004D600000
0000000000000005600008D3000000
000000000000000B1002C910000000
000000000000002B004E5000000000
000000000000008604E30000000000
00000000000000C21D500000000000
00000000000002D05D000000000000
00000000000006906A000000000000
0000000000000A503C000000000000
0000000000000E100B400000000000
0000000000004C0003C00000000000
000000000000870000960000000000
000000000000D200007A0000000000
000000000003C01712C70000000000
000000000008603DFE900000000000
00000000000C100000000000000000
000000000047000000000000000000
0000000000A1000000000000000000
000000000450000000000000000000
000000001800000000000000000000
300000018000000000000000000000
481001571000000000000000000000
09EDB9300000000000000000000000
ENDCHAR
STARTCHAR agrave
ENCODING 224
SWIDTH 294 0
DWIDTH 9 0
BBX 9 13 1 0
BITMAP
0000250000
00006E6000
0000028400
0000000000
0000000000
0019DFCB20
02C513D700
1D3001C000
7A00087000
D5004F2000
F4019E0000
E8384D1500
7E702E7000
ENDCHAR
STARTCHAR aacute
ENCODING 225
SWIDTH 294 0
DWIDTH 9 0
BBX 9 13 1 0
BITMAP
0000007D20
000002E600
0000162000
0000000000
0000000000
0019DFCB20
02C513D700
1D3001C000
7A00087000
D5004F2000
F4019E0000
E8384D1500
7E702E7000
ENDCHAR
STARTCHAR acircumflex
ENCODING 226
SWIDTH 294 0
DWIDTH 9 0
BBX 9 13 1 0
BITMAP
00000AA000
0002739C20
0001000000
0000000000
0000000000
0019DFCB20
02C513D700
1D3001C000
7A00087000
D5004F2000
F4019E0000
E8384D1500
7E702E7000
ENDCHAR
STARTCHAR atilde
ENCODING 227
SWIDTH 294 0
DWIDTH 9 0
BBX 9 13 1 0
BITMAP
0000000010
0004E81450
00172BE800
0000000000
0000000000
0019DFCB20
02C513D700
1D3001C000
7A00087000
D5004F2000
F4019E0000
E8384D1500
7E702E7000
ENDCHAR
STARTCHAR adieresis
ENCODING 228
SWIDTH 284 0
DWIDTH 9 0
BBX 9 12 1 0
BITMAP
0000B33C00
0003C17800
0000000000
0000000000
0019DFCB20
02C513D700
1D3001C000
7A00087000
D5004F2000
F4019E0000
E8384D1500
7E702E7000
ENDCHAR
STARTCHAR aring
ENCODING 229
SWIDTH 294 0
DWIDTH 9 0
BBX 9 13 1 0
BITMAP
00000BB000
0000539000
0000669000
00003E5000
0000000000
0019DFCB20
02C513D700
1D3001C000
7A00087000
D5004F2000
F4019E0000
E8384D1500
7E702E7000
ENDCHAR
STARTCHAR ae
ENCODING 230
SWIDTH 363 0
DWIDTH 12 0
BBX 11 9 1 0
BITMAP
000000080000
00245BB89E30
035003E20B80
1A0008805A10
76001DA73000
C3007D300000
F2043F300000
E7650E802700
8E5006EC7000
ENDCHAR
STARTCHAR ccedilla
ENCODING 231
SWIDTH 203 0
DWIDTH 7 0
BBX 6 13 1 -5
BITMAP
0012A6
040064
170000
740000
D30000
F20040
F71730
7ED200
072000
0A2000
091000
540000
100000
ENDCHAR
STARTCHAR egrave
ENCODING 232
SWIDTH 206 0
DWIDTH 7 0
BBX 7 13 1 0
BITMAP
00052000
001BD100
00004810
00000000
00000000
0049E300
0520C800
1805A100
7A720000
D3000000
F3000000
E8027000
6EC70000
ENDCHAR
STARTCHAR eacute
ENCODING 233
SWIDTH 206 0
DWIDTH 7 0
BBX 7 13 1 0
BITMAP
00000CA0
00007C20
00026000
00000000
00000000
0049E300
0520C800
1805A100
7A720000
D3000000
F3000000
E8027000
6EC70000
ENDCHAR
STARTCHAR ecircumflex
ENCODING 234
SWIDTH 206 0
DWIDTH 7 0
BBX 7 13 1 0
BITMAP
0008C100
01737D40
01000000
00000000
00000000
0049E300
0520C800
1805A100
7A720000
D3000000
F3000000
E8027000
6EC70000
ENDCHAR
STARTCHAR edieresis
ENCODING 235
SWIDTH 206 0
DWIDTH 7 0
BBX 7 12 1 0
BITMAP
002C0590
00690A50
00000000
00000000
0049E300
0520C800
1805A100
7A720000
D3000000
F3000000
E8027000
6EC70000
ENDCHAR
STARTCHAR igrave
ENCODING 236
SWIDTH 149 0
DWIDTH 5 0
BBX 5 13 1 0
BITMAP
016000
04DA00
001670
000000
000000
018500
27C000
196000
1D0000
6A0000
A60000
D55200
BC3000
ENDCHAR
STARTCHAR iacute
ENCODING 237
SWIDTH 149 0
DWIDTH 5 0
BBX 7 13 1 0
BITMAP
00009C10
0004E400
00171000
00000000
00000000
01850000
27C00000
19600000
1D000000
6A000000
A6000000
D5520000
BC300000
ENDCHAR
STARTCHAR icircumflex
ENCODING 238
SWIDTH 149 0
DWIDTH 5 0
BBX 6 13 1 0
BITMAP
005E30
0655D6
000000
000000
000000
018500
27C000
196000
1D0000
6A0000
A60000
D55200
BC3000
ENDCHAR
STARTCHAR idieresis
ENCODING 239
SWIDTH 149 0
DWIDTH 5 0
BBX 7 12 1 0
BITMAP
00A52C10
02D16A00
00000000
00000000
01850000
27C00000
19600000
1D000000
6A000000
A6000000
D5520000
BC300000
ENDCHAR
STARTCHAR eth
ENCODING 240
SWIDTH 234 0
DWIDTH 7 0
BBX 7 22 1 0
BITMAP
01000000
18000000
74000000
96000000
7D000000
1D800100
03E56200
009E0000
084C5000
5203D000
0000C300
00006800
00002C00
00000D00
00113E10
04200C20
18000B10
75000B00
B3004600
D3009000
DA293000
6EC30000
ENDCHAR
STARTCHAR ntilde
ENCODING 241
SWIDTH 291 0
DWIDTH 9 0
BBX 10 13 0 0
BITMAP
0000000001
00004E8145
000172BE80
0000000000
0000000000
009E006DA0
053D150A80
007A402F20
00B8007A00
01F300C500
07A000F100
0C4002F151
3C0000DB20
ENDCHAR
STARTCHAR ograve
ENCODING 242
SWIDTH 225 0
DWIDTH 7 0
BBX 7 13 1 0
BITMAP
00025000
0006E600
00002840
00000000
00000000
005DE500
0561AC00
18004C00
83004A00
D1007400
F0008000
E6182000
6EB20000
ENDCHAR
STARTCHAR oacute
ENCODING 243
SWIDTH 225 0
DWIDTH 7 0
BBX 7 13 1 0
BITMAP
000009C0
00004D40
00016100
00000000
00000000
005DE500
0561AC00
18004C00
83004A00
D1007400
F0008000
E6182000
6EB20000
ENDCHAR
STARTCHAR ocircumflex
ENCODING 244
SWIDTH 225 0
DWIDTH 7 0
BBX 8 13 1 0
BITMAP
00009C10
002738D3
00100000
00000000
00000000
005DE500
0561AC00
18004C00
83004A00
D1007400
F0008000
E6182000
6EB20000
ENDCHAR
STARTCHAR otilde
ENCODING 245
SWIDTH 225 0
DWIDTH 7 0
BBX 8 13 1 0
BITMAP
00000001
003E9236
0072AEA0
00000000
00000000
005DE500
0561AC00
18004C00
83004A00
D1007400
F0008000
E6182000
6EB20000
ENDCHAR
STARTCHAR odieresis
ENCODING 246
SWIDTH 225 0
DWIDTH 7 0
BBX 7 12 1 0
BITMAP
002C0590
00690A50
00000000
00000000
005DE500
0561AC00
18004C00
83004A00
D1007400
F0008000
E6182000
6EB20000
ENDCHAR
STARTCHAR divide
ENCODING 247
SWIDTH 301 0
DWIDTH 10 0
BBX 8 7 1 1
BITMAP
00001100
00008500
00000000
2AAAAAA5
00000000
000C1000
00020000
ENDCHAR
STARTCHAR oslash
ENCODING 248
SWIDTH 225 0
DWIDTH 7 0
BBX 8 10 0 -1
BITMAP
00000026
0005CEA0
00540CC0
018066C0
083354A0
0D270740
0F810900
0E818200
2BEB2000
50000000
ENDCHAR
STARTCHAR ugrave
ENCODING 249
SWIDTH 299 0
DWIDTH 10 0
BBX 9 13 1 0
BITMAP
0000160000
00005E9000
0000017600
0000000000
0000000000
0085002C00
29B000A600
1C3003E100
3C000A9000
98004A6000
C6032C5000
E7440D5410
AD4009D400
ENDCHAR
STARTCHAR uacute
ENCODING 250
SWIDTH 299 0
DWIDTH 10 0
BBX 9 13 1 0
BITMAP
0000003E50
000000C910
0000053000
0000000000
0000000000
0085002C00
29B000A600
1C3003E100
3C000A9000
98004A6000
C6032C5000
E7440D5410
AD4009D400
ENDCHAR
STARTCHAR ucircumflex
ENCODING 251
SWIDTH 299 0
DWIDTH 10 0
BBX 9 13 1 0
BITMAP
000009C100
0002738D30
0001000000
0000000000
0000000000
0085002C00
29B000A600
1C3003E100
3C000A9000
98004A6000
C6032C5000
E7440D5410
AD4009D400
ENDCHAR
STARTCHAR udieresis
ENCODING 252
SWIDTH 299 0
DWIDTH 10 0
BBX 9 12 1 0
BITMAP
0000A52C10
0002D16A00
0000000000
0000000000
0085002C00
29B000A600
1C3003E100
3C000A9000
98004A6000
C6032C5000
E7440D5410
AD4009D400
ENDCHAR
STARTCHAR yacute
ENCODING 253
SWIDTH 280 0
DWIDTH 9 0
BBX 16 21 -6 -8
BITMAP
00000000000001D8
00000000000009B1
0000000000004500
0000000000000000
0000000000000000
00000000184002C0
000000028B0008A0
00000001B4001E40
00000002D0009E00
000000088004A900
0000000B6025D300
0000000C6253C000
0000000AD5097000
00000000000E1000
0000000000590000
0300000000C20000
3700000004800000
950000000A100000
8800000082000000
3E30001820000000
04CB986000000000
ENDCHAR
STARTCHAR thorn
ENCODING 254
SWIDTH 261 0
DWIDTH 8 0
BBX 10 24 -2 -8
BITMAP
0000000042
00000007E3
00000022C0
0000000860
0000001D00
0000006800
000000C200
000003B000
00000943C8
00001C003E
000067002F
0000B1003C
0002800087
00083002C1
002D414B30
004EED8100
0084000000
00C1000000
02B0000000
0670000000
0A40000000
0D20000000
0F10000000
1E95000000
ENDCHAR
STARTCHAR ydieresis
ENCODING 255
SWIDTH 280 0
DWIDTH 9 0
BBX 15 20 -6 -8
BITMAP
00000000000A42C0
00000000002D1690
0000000000000000
0000000000000000
00000000184002C0
000000028B0008A0
00000001B4001E40
00000002D0009E00
000000088004A900
0000000B6025D300
0000000C6253C000
0000000AD5097000
00000000000E1000
0000000000590000
0300000000C20000
3700000004800000
950000000A100000
8800000082000000
3E30001820000000
04CB986000000000
ENDCHAR
STARTCHAR dotlessi
ENCODING 305
SWIDTH 149 0
DWIDTH 5 0
BBX 4 8 1 0
BITMAP
0185
27C0
1960
1D00
6A00
A600
D552
BC30
ENDCHAR
STARTCHAR Lslash
ENCODING 321
SWIDTH 657 0
DWIDTH 21 0
BBX 23 21 1 0
BITMAP
000000000000000005BEE800
000000000000000164117F20
000000000000000500000C10
000000000000006000000800
000000000000034000000400
000000000000090000000000
000000000000460000000000
000000000000B10000000000
000000000002C36760000000
000000000029E93000000000
00000001796D500000000000
00000002201F100000000000
00000000006C000000000000
0000000000A7000000000000
0000000001E2000000000000
0000000006B0000000000000
000210000C30000000000000
1578AC946900000000030000
A000015EF300000000520000
F82014954BD8421128600000
5DFEB7100049DEEDA3000000
ENDCHAR
STARTCHAR lslash
ENCODING 322
SWIDTH 134 0
DWIDTH 4 0
BBX 15 24 1 0
BITMAP
000000000018DD10
0000000003C86B30
000000002A100200
0000000180000000
0000000810000000
0000005300000000
0000017000000000
0000071000000000
0000170000000000
0000835200000000
0038A30000000000
0448200000000000
001A000000000000
0075000000000000
00C0000000000000
03A0000000000000
0850000000000000
0D10000000000000
3C00000000000000
7900000000000000
B600000000000000
E400000000000000
F423000000000000
CB30000000000000
ENDCHAR
STARTCHAR OE
ENCODING 338
SWIDTH 827 0
DWIDTH 26 0
BBX 27 21 2 0
BITMAP
0000000049DEFD92002678AC9200
00000039731026DF66700001AE10
000006500000001AFA0000000B00
0000720000000001E60000000600
0007300000000000E60000000000
0036000000000000BD1000000000
00B00000000000002ED610000000
057000000000000016FF50000000
0C20000000000025520000000000
2D00000000000440000000000000
6B00000000005500000000000000
9A0000000002B000000000000000
A9000000000A7000000000000000
BA000000001F4000000000000000
AC000000004F3000000000000000
8F100000005F3000000000060000
4F700000005F5000000000080000
0CE20000002FA000000000650000
03FD3000000AF300000003D10000
004EF941025ACE4000016D500000
00018CEFDA5007CC988851000000
ENDCHAR
STARTCHAR oe
ENCODING 339
SWIDTH 345 0
DWIDTH 11 0
BBX 10 8 1 0
BITMAP
005CE418D9
05409B605E
17004F1294
83004D7500
D1007A0000
F000DA0000
E5089E1062
7EB22CEA20
ENDCHAR
STARTCHAR Scaron
ENCODING 352
SWIDTH 480 0
DWIDTH 15 0
BBX 16 25 1 0
BITMAP
0000000000230003
00000000002B9283
000000000000AA00
0000000000000000
00000000007DFD70
000000000BA66BF6
000000007600008B
00000000D0000039
00000002D0000053
00000001F1000010
00000000C8000000
000000005E200000
000000000CB00000
0000000002E60000
00000000007E2000
00000000000CA000
000000000004F200
003000000000C800
0640000000008A00
1D00000000007A00
5C00000000007700
5F1000000000B200
1F90000000066000
05FB300002750000
0029DDBB97100000
ENDCHAR
STARTCHAR scaron
ENCODING 353
SWIDTH 188 0
DWIDTH 6 0
BBX 9 13 -1 0
BITMAP
0002B30120
0000192000
0000001000
0000000000
0000000000
0003969000
000B406000
000B701000
0004E20000
0000AA0000
04103E0000
1B003B0000
0976820000
ENDCHAR
STARTCHAR Ydieresis
ENCODING 376
SWIDTH 662 0
DWIDTH 21 0
BBX 28 28 0 -4
BITMAP
0000000000000000001906400000
0000000000000000005A0D200000
0000000000000000000000000000
000000000002AEA000000000005B
00000000004717F00000000001E6
00000000026004F00000000007D0
00000000000006D0000000000D60
0000000000000A90000000007E00
0000000000000E5000000001E700
0000000000003F1000000008E000
0000000000007B000000002E6000
000000000000C600000000AD0000
000000000001F200000005F50000
000000000005C00000001CC00000
000000000009900000008C400000
00000030000C600000077A000000
00027740000F40000055B1000000
00660000001F4000065660000000
06600000000DB214931A00000000
1C0000000004DEC6008200000000
7900000000000000055000000000
A700000000000000270000000000
B800000000000001800000000000
AB00000000000017100000000000
7F20000000000271000000000000
1EC1000000006700000000000000
04ED621124893000000000000000
0029DFFDB7200000000000000000
ENDCHAR
STARTCHAR Zcaron
ENCODING 381
SWIDTH 625 0
DWIDTH 20 0
BBX 22 25 1 0
BITMAP
0000000000000330003000
00000000000002B8382000
000000000000000B900000
0000000000000000000000
0000000003ADFED9500000
000000004B410247CE8236
00000000A0000000039ED2
0000000530000000003B10
000000060000000004A100
00000002000000004A1000
0000000000000005A00000
0000000000000069000000
0000000000000790000000
0000000000008800000000
0000000000098000000000
0000000000A70000000000
000000000A700000000000
00000001B6000000000000
0000001C60000000000000
000002C500000000001000
00002D5000000000007000
0003D40000000000072000
003D400000000000560000
04EDDC974210025B700000
3B20047ACEFFEC93000000
ENDCHAR
STARTCHAR zcaron
ENCODING 382
SWIDTH 248 0
DWIDTH 8 0
BBX 10 13 -1 0
BITMAP
00002B3012
000001A100
0000000100
0000000000
0000000000
0008EEB980
0043016900
0000037000
0000370000
0003600000
0046000410
04C4103700
297BEE9000
ENDCHAR
STARTCHAR florin
ENCODING 402
SWIDTH 214 0
DWIDTH 7 0
BBX 12 13 -3 -3
BITMAP
000000018EC0
000000093191
000000650000
000000D10000
000004B00000
00009FFDC700
00002A500000
00000E100000
00003B000000
000085000000
0001A0000000
200820000000
6C9200000000
ENDCHAR
STARTCHAR circumflex
ENCODING 710
SWIDTH 196 0
DWIDTH 6 0
BBX 6 2 0 11
BITMAP
008D10
1747D4
ENDCHAR
STARTCHAR caron
ENCODING 711
SWIDTH 196 0
DWIDTH 6 0
BBX 6 3 0 10
BITMAP
2B3012
01A100
000100
ENDCHAR
STARTCHAR breve
ENCODING 728
SWIDTH 198 0
DWIDTH 6 0
BBX 6 3 0 10
BITMAP
370005
093010
001000
ENDCHAR
STARTCHAR dotaccent
ENCODING 729
SWIDTH 89 0
DWIDTH 3 0
BBX 3 2 0 10
BITMAP
1D20
4B00
ENDCHAR
STARTCHAR ring
ENCODING 730
SWIDTH 117 0
DWIDTH 4 0
BBX 4 4 0 9
BITMAP
0AC0
3581
57A0
2E60
ENDCHAR
STARTCHAR ogonek
ENCODING 731
SWIDTH 124 0
DWIDTH 4 0
BBX 4 4 0 -4
BITMAP
0360
1800
5700
1971
ENDCHAR
STARTCHAR tilde
ENCODING 732
SWIDTH 222 0
DWIDTH 7 0
BBX 7 3 0 10
BITMAP
00000010
06E61630
263CE600
ENDCHAR
STARTCHAR hungarumlaut
ENCODING 733
SWIDTH 253 0
DWIDTH 8 0
BBX 8 3 0 10
BITMAP
006E35E4
03E73E80
29229300
ENDCHAR
STARTCHAR mu.dup2
ENCODING 956
SWIDTH 324 0
DWIDTH 10 0
BBX 11 13 -1 -5
BITMAP
0000093004B0
000079000C40
0001E2006C00
0008A001B700
001E5004D300
006E3041F200
00CA4531F340
03C7C300BC20
087000000000
0D3000000000
2F0000000000
5E0000000000
760000000000
ENDCHAR
STARTCHAR endash
ENCODING 8211
SWIDTH 500 0
DWIDTH 16 0
BBX 16 1 0 4
BITMAP
4FEEEEEEEEEFFFE3
ENDCHAR
STARTCHAR emdash
ENCODING 8212
SWIDTH 1000 0
DWIDTH 32 0
BBX 32 1 0 4
BITMAP
4FEEEEEEEEEEEEEEEEEEEEEEEEFFFFE3
ENDCHAR
STARTCHAR quoteleft
ENCODING 8216
SWIDTH 87 0
DWIDTH 3 0
BBX 4 6 1 8
BITMAP
0001
0072
0730
1D00
3F20
1700
ENDCHAR
STARTCHAR quoteright
ENCODING 8217
SWIDTH 87 0
DWIDTH 3 0
BBX 4 6 1 8
BITMAP
0010
00D5
00C4
00B0
0630
2300
ENDCHAR
STARTCHAR quotesinglbase
ENCODING 8218
SWIDTH 112 0
DWIDTH 4 0
BBX 3 4 0 -2
BITMAP
0290
09A0
0620
2100
ENDCHAR
STARTCHAR quotedblleft
ENCODING 8220
SWIDTH 167 0
DWIDTH 5 0
BBX 6 5 1 8
BITMAP
004417
046081
0C0580
2E1990
2B1860
ENDCHAR
STARTCHAR quotedblright
ENCODING 8221
SWIDTH 167 0
DWIDTH 5 0
BBX 6 5 1 8
BITMAP
00A43B
00D55D
00B149
036081
250620
ENDCHAR
STARTCHAR quotedblbase
ENCODING 8222
SWIDTH 192 0
DWIDTH 6 0
BBX 6 4 0 -2
BITMAP
05A0B3
0690D3
082290
522600
ENDCHAR
STARTCHAR dagger
ENCODING 8224
SWIDTH 185 0
DWIDTH 6 0
BBX 8 20 0 -3
BITMAP
00000350
00000C10
00003A00
00008500
0000C100
0002A000
2BEFECC8
00093000
000B0000
00290000
00550000
00910000
00900000
01700000
05300000
08000000
08000000
07000000
24000000
21000000
ENDCHAR
STARTCHAR daggerdbl
ENCODING 8225
SWIDTH 185 0
DWIDTH 6 0
BBX 9 20 -1 -3
BITMAP
0000003500
000000C100
000002B000
0000086000
00000C1000
00002B0000
02BEFFED90
0000930000
0000B00000
0002800000
0007300000
0009000000
0009000000
9EFFDCA000
0053000000
0080000000
0080000000
0070000000
0340000000
0200000000
ENDCHAR
STARTCHAR bullet
ENCODING 8226
SWIDTH 207 0
DWIDTH 7 0
BBX 5 4 1 3
BITMAP
05DD20
1EFF70
3FFF40
0CE800
ENDCHAR
STARTCHAR ellipsis
ENCODING 8230
SWIDTH 376 0
DWIDTH 12 0
BBX 11 2 1 0
BITMAP
8A005D003D20
D400B6008900
ENDCHAR
STARTCHAR perthousand
ENCODING 8240
SWIDTH 571 0
DWIDTH 18 0
BBX 18 15 0 -3
BITMAP
000000000056000000
0000000002A0000000
004CE5000A10000000
04606B008400000000
09003A047000000000
490055190000000000
5C0280915CE6006CE4
1DD90644605B064089
0000380A003A190058
0000903A0054570072
0008204C02806B0370
0046001CE9002DD700
019000000000000000
092000000000000000
020000000000000000
ENDCHAR
STARTCHAR guilsinglleft
ENCODING 8249
SWIDTH 189 0
DWIDTH 6 0
BBX 7 8 0 0
BITMAP
00000730
00029200
00491000
06700000
3E300000
07E40000
008E2000
000B3000
ENDCHAR
STARTCHAR guilsinglright
ENCODING 8250
SWIDTH 176 0
DWIDTH 6 0
BBX 6 8 -1 0
BITMAP
00A900
004F40
0007E2
00009C
000292
005700
065000
640000
ENDCHAR
STARTCHAR fraction
ENCODING 8260
SWIDTH 220 0
DWIDTH 7 0
BBX 12 13 -1 -2
BITMAP
0000000001B1
000000000A30
000000009400
000000075000
000000570000
000003800000
000029000000
0001A1000000
000920000000
008400000000
056000000000
390000000000
300000000000
ENDCHAR
STARTCHAR Euro
ENCODING 8364
SWIDTH 360 0
DWIDTH 12 0
BBX 10 10 0 0
BITMAP
000011116B
0006100008
0074000002
1BFFFFE000
14E2100000
6BFFFF6000
05D2100000
03E0000000
00B3000600
0018216500
ENDCHAR
STARTCHAR trademark
ENCODING 8482
SWIDTH 389 0
DWIDTH 12 0
BBX 11 5 1 5
BITMAP
157972090440
008100693B10
019006294A00
0660533A0A10
051060210520
ENDCHAR
STARTCHAR minus
ENCODING 8722
SWIDTH 301 0
DWIDTH 10 0
BBX 8 1 1 4
BITMAP
2EFFFFF8
ENDCHAR
STARTCHAR fi
ENCODING 64257
SWIDTH 297 0
DWIDTH 10 0
BBX 27 32 -10 -8
BITMAP
00000000000000000000005CFD20
0000000000000000000019744B90
0000000000000000000181000080
0000000000000000000710000000
0000000000000000006300000000
0000000000000000018000000000
0000000000000000091000000000
0000000000000000390000000000
0000000000000000A20000000000
0000000000000002B00000000000
0000000000000009600000000000
000000000000001E100002000000
000000000000006A000071000000
00000000000000B5000730000000
00000000000002E1000800000000
00000000000007B0000000000000
000000000007EFFEDDE300000000
0000000000032E30039000000000
0000000000005D000B2000000000
000000000000A8003B0000000000
000000000000E300960000000000
000000000005C000E20000000000
00000000000B6002F26000000000
00000000002E1001DA1000000000
0000000000870000000000000000
0000000001D10000000000000000
0000000007500000000000000000
000000001A000000000000000000
0000000091000000000000000000
1400000720000000000000000000
4900016200000000000000000000
0BC9850000000000000000000000
ENDCHAR
STARTCHAR fl
ENCODING 64258
SWIDTH 290 0
DWIDTH 9 0
BBX 31 32 -10 -8
BITMAP
0000000000000000000000021018DD10
0000000000000000000007EFF7B86B40
0000000000000000000196226B100200
00000000000000000009100060000000
00000000000000000072000510000000
00000000000000000380003200000000
00000000000000000B10005000000000
00000000000000004800041000000000
0000000000000000C200150000000000
0000000000000004B000600000000000
000000000000000A5001600000000000
000000000000001E1006100000000000
000000000000007A0008000000000000
00000000000000C50053000000000000
00000000000002E00090000000000000
00000000000008A00280000000000000
000000000006DFFEDE40000000000000
0000000000032E200A00000000000000
0000000000005C001B00000000000000
000000000000A7006800000000000000
000000000001E200A600000000000000
000000000005B000D403000000000000
00000000000B5000F872000000000000
00000000002D0000BC20000000000000
00000000008600000000000000000000
0000000001C000000000000000000000
00000000085000000000000000000000
000000002A0000000000000000000000
00000000910000000000000000000000
13000007200000000000000000000000
48000262000000000000000000000000
1BC98500000000000000000000000000
ENDCHAR
STARTCHAR .notdef
ENCODING -1
SWIDTH 150 0
DWIDTH 5 0
BBX 1 1 0 0
BITMAP
00
ENDCHAR
STARTCHAR .null
ENCODING -1
SWIDTH 0 0
DWIDTH 0 0
BBX 1 1 0 0
BITMAP
00
ENDCHAR
STARTCHAR nonmarkingreturn
ENCODING -1
SWIDTH 150 0
DWIDTH 5 0
BBX 1 1 0 0
BITMAP
00
ENDCHAR
ENDFONT
